<svg width="77" height="74" viewBox="0 0 77 74" fill="none" xmlns="http://www.w3.org/2000/svg">
<path d="M54.7421 60.7726V54.4089C54.7421 51.0334 53.4012 47.7962 51.0144 45.4094C48.6275 43.0225 45.3903 41.6816 42.0148 41.6816H16.5603C13.1848 41.6816 9.94757 43.0225 7.56074 45.4094C5.17391 47.7962 3.83301 51.0334 3.83301 54.4089V60.7726" stroke="white" stroke-width="6" stroke-linecap="round" stroke-linejoin="round"/>
<path d="M29.2878 28.9545C36.3169 28.9545 42.0151 23.2564 42.0151 16.2273C42.0151 9.19819 36.3169 3.5 29.2878 3.5C22.2587 3.5 16.5605 9.19819 16.5605 16.2273C16.5605 23.2564 22.2587 28.9545 29.2878 28.9545Z" stroke="white" stroke-width="6" stroke-linecap="round" stroke-linejoin="round"/>
<path d="M73.8326 60.7725V54.4089C73.8305 51.5889 72.8919 48.8495 71.1642 46.6208C69.4365 44.392 67.0175 42.8002 64.2871 42.0952" stroke="white" stroke-width="6" stroke-linecap="round" stroke-linejoin="round"/>
<path d="M51.5605 3.91309C54.2982 4.61404 56.7248 6.20623 58.4576 8.43862C60.1904 10.671 61.131 13.4166 61.131 16.2426C61.131 19.0686 60.1904 21.8142 58.4576 24.0466C56.7248 26.279 54.2982 27.8712 51.5605 28.5722" stroke="white" stroke-width="6" stroke-linecap="round" stroke-linejoin="round"/>
</svg>
