<svg width="52" height="52" viewBox="0 0 52 52" fill="none" xmlns="http://www.w3.org/2000/svg">
<g id="phone_iphone">
<mask id="mask0_4515_875" style="mask-type:alpha" maskUnits="userSpaceOnUse" x="0" y="0" width="52" height="52">
<rect id="Bounding box" width="52" height="52" fill="#D9D9D9"/>
</mask>
<g mask="url(#mask0_4515_875)">
<path id="phone_iphone_2" d="M15.8334 48.7498C14.739 48.7498 13.8126 48.3707 13.0542 47.6123C12.2959 46.854 11.9167 45.9277 11.9167 44.8332V7.16669C11.9167 6.07223 12.2959 5.14583 13.0542 4.3875C13.8126 3.62917 14.739 3.25 15.8334 3.25H36.1666C37.2611 3.25 38.1875 3.62917 38.9458 4.3875C39.7041 5.14583 40.0833 6.07223 40.0833 7.16669V44.8332C40.0833 45.9277 39.7041 46.8541 38.9458 47.6124C38.1875 48.3707 37.2611 48.7499 36.1666 48.7499L15.8334 48.7498ZM15.1667 38.5V44.8333C15.1667 45 15.2361 45.1528 15.375 45.2917C15.5139 45.4306 15.6667 45.5 15.8334 45.5H36.1666C36.3333 45.5 36.4861 45.4306 36.625 45.2917C36.7639 45.1528 36.8334 45 36.8334 44.8333V38.5H15.1667ZM26 43.9167C26.5306 43.9167 26.9826 43.7298 27.3563 43.3562C27.7299 42.9826 27.9167 42.5305 27.9167 42C27.9167 41.4694 27.7299 41.0174 27.3563 40.6437C26.9826 40.2701 26.5306 40.0833 26 40.0833C25.4695 40.0833 25.0174 40.2701 24.6438 40.6437C24.2702 41.0173 24.0834 41.4694 24.0834 41.9999C24.0834 42.5305 24.2702 42.9825 24.6438 43.3561C25.0174 43.7298 25.4695 43.9167 26 43.9167ZM15.1667 35.25H36.8334V12.4582H15.1667V35.25ZM15.1667 9.20833H36.8334V7.16669C36.8334 7 36.7639 6.84719 36.625 6.70827C36.4861 6.56939 36.3333 6.49995 36.1666 6.49995H15.8334C15.6667 6.49995 15.5139 6.56939 15.375 6.70827C15.2361 6.84719 15.1667 7 15.1667 7.16669V9.20833Z" fill="#1C1B1F"/>
</g>
</g>
</svg>
