<svg width="78" height="74" viewBox="0 0 78 74" fill="none" xmlns="http://www.w3.org/2000/svg">
<path d="M67.334 17.667H10.6673C6.7553 17.667 3.58398 20.8383 3.58398 24.7503V60.167C3.58398 64.079 6.7553 67.2503 10.6673 67.2503H67.334C71.246 67.2503 74.4173 64.079 74.4173 60.167V24.7503C74.4173 20.8383 71.246 17.667 67.334 17.667Z" stroke="white" stroke-width="6" stroke-linecap="round" stroke-linejoin="round"/>
<path d="M53.1673 67.25V10.5833C53.1673 8.70472 52.421 6.90304 51.0927 5.57466C49.7643 4.24628 47.9626 3.5 46.084 3.5H31.9173C30.0387 3.5 28.237 4.24628 26.9086 5.57466C25.5803 6.90304 24.834 8.70472 24.834 10.5833V67.25" stroke="white" stroke-width="6" stroke-linecap="round" stroke-linejoin="round"/>
</svg>
