<svg width="24" height="24" viewBox="0 0 24 24" fill="none" xmlns="http://www.w3.org/2000/svg">
<g id="bus_alert">
<mask id="mask0_4515_785" style="mask-type:alpha" maskUnits="userSpaceOnUse" x="0" y="0" width="24" height="24">
<rect id="Bounding box" width="24" height="24" fill="#004B8F"/>
</mask>
<g mask="url(#mask0_4515_785)">
<path id="bus_alert_2" d="M18 11C16.6167 11 15.4375 10.5125 14.4625 9.5375C13.4875 8.5625 13 7.38333 13 6C13 4.61667 13.4875 3.4375 14.4625 2.4625C15.4375 1.4875 16.6167 1 18 1C19.3833 1 20.5625 1.4875 21.5375 2.4625C22.5125 3.4375 23 4.61667 23 6C23 7.38333 22.5125 8.5625 21.5375 9.5375C20.5625 10.5125 19.3833 11 18 11ZM17.5 7H18.5V3H17.5V7ZM18 9C18.1333 9 18.25 8.95 18.35 8.85C18.45 8.75 18.5 8.63333 18.5 8.5C18.5 8.36667 18.45 8.25 18.35 8.15C18.25 8.05 18.1333 8 18 8C17.8667 8 17.75 8.05 17.65 8.15C17.55 8.25 17.5 8.36667 17.5 8.5C17.5 8.63333 17.55 8.75 17.65 8.85C17.75 8.95 17.8667 9 18 9ZM6.5 17C6.91667 17 7.27083 16.8542 7.5625 16.5625C7.85417 16.2708 8 15.9167 8 15.5C8 15.0833 7.85417 14.7292 7.5625 14.4375C7.27083 14.1458 6.91667 14 6.5 14C6.08333 14 5.72917 14.1458 5.4375 14.4375C5.14583 14.7292 5 15.0833 5 15.5C5 15.9167 5.14583 16.2708 5.4375 16.5625C5.72917 16.8542 6.08333 17 6.5 17ZM13.5 17C13.9167 17 14.2708 16.8542 14.5625 16.5625C14.8542 16.2708 15 15.9167 15 15.5C15 15.0833 14.8542 14.7292 14.5625 14.4375C14.2708 14.1458 13.9167 14 13.5 14C13.0833 14 12.7292 14.1458 12.4375 14.4375C12.1458 14.7292 12 15.0833 12 15.5C12 15.9167 12.1458 16.2708 12.4375 16.5625C12.7292 16.8542 13.0833 17 13.5 17ZM4 22C3.71667 22 3.47917 21.9042 3.2875 21.7125C3.09583 21.5208 3 21.2833 3 21V18.95C2.7 18.6167 2.45833 18.2458 2.275 17.8375C2.09167 17.4292 2 16.9833 2 16.5V7C2 6.5 2.09583 5.99583 2.2875 5.4875C2.47917 4.97917 2.90417 4.525 3.5625 4.125C4.22083 3.725 5.19167 3.42083 6.475 3.2125C7.75833 3.00417 9.48333 2.95 11.65 3.05C11.3667 3.85 11.1917 4.66667 11.125 5.5C11.0583 6.33333 11.1167 7.16667 11.3 8H4V11H13.1C13.7333 11.6333 14.4708 12.125 15.3125 12.475C16.1542 12.825 17.05 13 18 13V16.5C18 16.9833 17.9083 17.4292 17.725 17.8375C17.5417 18.2458 17.3 18.6167 17 18.95V21C17 21.2833 16.9042 21.5208 16.7125 21.7125C16.5208 21.9042 16.2833 22 16 22H15C14.7167 22 14.4792 21.9042 14.2875 21.7125C14.0958 21.5208 14 21.2833 14 21V20H6V21C6 21.2833 5.90417 21.5208 5.7125 21.7125C5.52083 21.9042 5.28333 22 5 22H4Z" fill="#D52222"/>
</g>
</g>
</svg>
