<svg width="25" height="24" viewBox="0 0 25 24" fill="none" xmlns="http://www.w3.org/2000/svg">
<g id="Icons - Light" clip-path="url(#clip0_8354_8779)">
<path id="Vector" d="M20.1667 3.75H5.16672C4.7525 3.75 4.41672 4.08579 4.41672 4.5V19.5C4.41672 19.9142 4.7525 20.25 5.16672 20.25H20.1667C20.5809 20.25 20.9167 19.9142 20.9167 19.5V4.5C20.9167 4.08579 20.5809 3.75 20.1667 3.75Z" stroke="black" stroke-width="1.5" stroke-linecap="round" stroke-linejoin="round"/>
<path id="Vector_2" d="M17.1667 2.25V5.25" stroke="black" stroke-width="1.5" stroke-linecap="round" stroke-linejoin="round"/>
<path id="Vector_3" d="M8.16672 2.25V5.25" stroke="black" stroke-width="1.5" stroke-linecap="round" stroke-linejoin="round"/>
<path id="Vector_4" d="M4.41672 8.25H20.9167" stroke="black" stroke-width="1.5" stroke-linecap="round" stroke-linejoin="round"/>
<path id="Vector_5" d="M12.6667 13.3125C13.1845 13.3125 13.6042 12.8928 13.6042 12.375C13.6042 11.8572 13.1845 11.4375 12.6667 11.4375C12.149 11.4375 11.7292 11.8572 11.7292 12.375C11.7292 12.8928 12.149 13.3125 12.6667 13.3125Z" fill="black"/>
<path id="Vector_6" d="M16.7917 13.3125C17.3095 13.3125 17.7292 12.8928 17.7292 12.375C17.7292 11.8572 17.3095 11.4375 16.7917 11.4375C16.274 11.4375 15.8542 11.8572 15.8542 12.375C15.8542 12.8928 16.274 13.3125 16.7917 13.3125Z" fill="black"/>
<path id="Vector_7" d="M8.54172 17.0625C9.05948 17.0625 9.47922 16.6428 9.47922 16.125C9.47922 15.6072 9.05948 15.1875 8.54172 15.1875C8.02395 15.1875 7.60422 15.6072 7.60422 16.125C7.60422 16.6428 8.02395 17.0625 8.54172 17.0625Z" fill="black"/>
<path id="Vector_8" d="M12.6667 17.0625C13.1845 17.0625 13.6042 16.6428 13.6042 16.125C13.6042 15.6072 13.1845 15.1875 12.6667 15.1875C12.149 15.1875 11.7292 15.6072 11.7292 16.125C11.7292 16.6428 12.149 17.0625 12.6667 17.0625Z" fill="black"/>
<path id="Vector_9" d="M16.7917 17.0625C17.3095 17.0625 17.7292 16.6428 17.7292 16.125C17.7292 15.6072 17.3095 15.1875 16.7917 15.1875C16.274 15.1875 15.8542 15.6072 15.8542 16.125C15.8542 16.6428 16.274 17.0625 16.7917 17.0625Z" fill="black"/>
</g>
<defs>
<clipPath id="clip0_8354_8779">
<rect width="24" height="24" fill="white" transform="translate(0.666718)"/>
</clipPath>
</defs>
</svg>
