<svg width="34" height="34" viewBox="0 0 34 34" fill="none" xmlns="http://www.w3.org/2000/svg">
<g id="rectangle-xmark">
<path id="Primary" d="M7.25 5C5.45742 5 4 6.47344 4 8.28571V24.7143C4 26.5266 5.45742 28 7.25 28H26.75C28.5426 28 30 26.5266 30 24.7143V8.28571C30 6.47344 28.5426 5 26.75 5H7.25ZM12.8867 12.3415C13.3641 11.8589 14.1359 11.8589 14.6082 12.3415L16.9949 14.7545L19.3816 12.3415C19.859 11.8589 20.6309 11.8589 21.1031 12.3415C21.5754 12.8241 21.5805 13.6045 21.1031 14.0819L18.7164 16.4949L21.1031 18.9078C21.5805 19.3904 21.5805 20.1708 21.1031 20.6482C20.6258 21.1257 19.8539 21.1308 19.3816 20.6482L16.9949 18.2353L14.6082 20.6482C14.1309 21.1308 13.359 21.1308 12.8867 20.6482C12.4145 20.1656 12.4094 19.3853 12.8867 18.9078L15.2734 16.4949L12.8867 14.0819C12.4094 13.5993 12.4094 12.819 12.8867 12.3415Z" fill="#004B8F"/>
</g>
</svg>
