<svg width="41" height="41" viewBox="0 0 41 41" fill="none" xmlns="http://www.w3.org/2000/svg">
<g id="Icons - Light" clip-path="url(#clip0_6276_9381)">
<path id="Vector" d="M17.125 18.625L22.125 23.625" stroke="white" stroke-width="1.875" stroke-linecap="round" stroke-linejoin="round"/>
<path id="Vector_2" d="M35.8844 16.1152L29.625 22.3746" stroke="white" stroke-width="1.875" stroke-linecap="round" stroke-linejoin="round"/>
<path id="Vector_3" d="M6.5002 10.5005L8.65176 8.27702C9.9286 7 11.4445 5.987 13.1128 5.29587C14.7812 4.60475 16.5694 4.24902 18.3752 4.24902C20.181 4.24902 21.9692 4.60475 23.6376 5.29587C25.3059 5.987 26.8218 7 28.0986 8.27702L38.6346 18.8848C38.8688 19.1192 39.0004 19.4371 39.0004 19.7684C39.0004 20.0998 38.8688 20.4176 38.6346 20.652L34.1565 25.1348C33.9221 25.3691 33.6042 25.5007 33.2729 25.5007C32.9415 25.5007 32.6237 25.3691 32.3893 25.1348L26.5002 19.2505L10.6158 35.1348C10.3814 35.3691 10.0636 35.5007 9.73223 35.5007C9.40085 35.5007 9.08304 35.3691 8.84864 35.1348L5.61583 31.9067C5.38158 31.6723 5.25 31.3545 5.25 31.0231C5.25 30.6917 5.38158 30.3739 5.61583 30.1395L21.5002 14.2505L12.7158 5.46609" stroke="white" stroke-width="1.875" stroke-linecap="round" stroke-linejoin="round"/>
</g>
<defs>
<clipPath id="clip0_6276_9381">
<rect width="40" height="40" fill="white" transform="translate(0.25 0.5)"/>
</clipPath>
</defs>
</svg>
