<svg width="24" height="24" viewBox="0 0 24 24" fill="none" xmlns="http://www.w3.org/2000/svg">
<g clip-path="url(#clip0_6030_6262)">
<path d="M14.2498 14.2499L21.9701 12.0937C22.1214 12.0473 22.2542 11.9543 22.3494 11.8279C22.4446 11.7015 22.4974 11.5482 22.5003 11.3899C22.5031 11.2317 22.4557 11.0766 22.3651 10.9469C22.2744 10.8172 22.145 10.7195 21.9954 10.6678L5.4954 4.54776C5.36304 4.50274 5.22073 4.49561 5.08453 4.52719C4.94834 4.55876 4.82368 4.62777 4.72462 4.72644C4.62557 4.8251 4.55606 4.94949 4.52395 5.08556C4.49185 5.22163 4.49841 5.36397 4.5429 5.49651L10.6629 21.9965C10.7146 22.1461 10.8123 22.2755 10.942 22.3662C11.0717 22.4568 11.2268 22.5042 11.3851 22.5014C11.5433 22.4985 11.6966 22.4458 11.823 22.3505C11.9494 22.2553 12.0425 22.1225 12.0888 21.9712L14.2498 14.2499Z" stroke="black" stroke-linecap="round" stroke-linejoin="round"/>
</g>
<defs>
<clipPath id="clip0_6030_6262">
<rect width="24" height="24" fill="white"/>
</clipPath>
</defs>
</svg>
