<svg width="21" height="16" viewBox="0 0 21 16" fill="none" xmlns="http://www.w3.org/2000/svg">
<path id="Primary" d="M1.96875 0C0.881836 0 0 0.881836 0 1.96875C0 2.58809 0.291211 3.17051 0.7875 3.54375L9.7125 10.2375C10.1801 10.5861 10.8199 10.5861 11.2875 10.2375L20.2125 3.54375C20.7088 3.17051 21 2.58809 21 1.96875C21 0.881836 20.1182 0 19.0312 0H1.96875ZM0 4.59375V13.125C0 14.5729 1.17715 15.75 2.625 15.75H18.375C19.8229 15.75 21 14.5729 21 13.125V4.59375L12.075 11.2875C11.1398 11.9889 9.86016 11.9889 8.925 11.2875L0 4.59375Z" fill="#122A72"/>
</svg>
