<svg width="16" height="23" viewBox="0 0 16 23" fill="none" xmlns="http://www.w3.org/2000/svg">
<g id="file-excel">
<path id="Primary" d="M3.33333 2C2.04635 2 1 3.06504 1 4.375V18.625C1 19.935 2.04635 21 3.33333 21H12.6667C13.9536 21 15 19.935 15 18.625V7.9375H10.3333C9.68802 7.9375 9.16667 7.40684 9.16667 6.75V2H3.33333ZM10.3333 2V6.75H15L10.3333 2ZM6.67656 11.2848L8 13.2107L9.32344 11.2848C9.60052 10.8803 10.1474 10.7838 10.5411 11.0658C10.9349 11.3479 11.0333 11.9045 10.7562 12.3053L9.06823 14.7656L10.7599 17.2223C11.037 17.6268 10.9422 18.1797 10.5448 18.4617C10.1474 18.7437 9.60417 18.6473 9.32708 18.2428L8 16.3168L6.67656 18.2428C6.39948 18.6473 5.8526 18.7437 5.45885 18.4617C5.0651 18.1797 4.96667 17.623 5.24375 17.2223L6.93177 14.7656L5.2401 12.309C4.96302 11.9045 5.05781 11.3516 5.45521 11.0695C5.8526 10.7875 6.39583 10.884 6.67292 11.2885L6.67656 11.2848Z" fill="#122A72"/>
</g>
</svg>
