<svg width="27" height="26" viewBox="0 0 27 26" fill="none" xmlns="http://www.w3.org/2000/svg">
<g clip-path="url(#clip0_8019_11034)">
<path d="M26.8184 13C26.8184 5.82036 20.998 0 13.8184 0C6.63872 0 0.818359 5.82036 0.818359 13C0.818359 19.0965 5.0158 24.2122 10.6781 25.6173V16.9728H7.99748V13H10.6781V11.2882C10.6781 6.86348 12.6806 4.8126 17.0247 4.8126C17.8484 4.8126 19.2695 4.97432 19.8509 5.13552V8.73652C19.5441 8.70428 19.0111 8.68816 18.3491 8.68816C16.2176 8.68816 15.394 9.49572 15.394 11.595V13H19.6403L18.9107 16.9728H15.394V25.9048C21.831 25.1274 26.8189 19.6466 26.8189 13H26.8184Z" fill="white"/>
</g>
<defs>
<clipPath id="clip0_8019_11034">
<rect width="26" height="26" fill="white" transform="translate(0.818359)"/>
</clipPath>
</defs>
</svg>
