<svg width="21" height="21" viewBox="0 0 21 21" fill="none" xmlns="http://www.w3.org/2000/svg">
<path id="Primary" d="M5.25 2.625V6.5625H7.875V2.625H15.8607L17.0625 3.82676V6.5625H19.6875V3.82676C19.6875 3.12949 19.4127 2.46094 18.9205 1.96875L17.7188 0.766992C17.2266 0.274805 16.558 0 15.8607 0H7.875C6.42715 0 5.25 1.17715 5.25 2.625ZM0 6.5625V19.6875C0 20.4135 0.586523 21 1.3125 21H2.625C3.35098 21 3.9375 20.4135 3.9375 19.6875V6.5625C3.9375 5.83652 3.35098 5.25 2.625 5.25H1.3125C0.586523 5.25 0 5.83652 0 6.5625ZM19.6875 7.875H5.25V19.6875C5.25 20.4135 5.83652 21 6.5625 21H19.6875C20.4135 21 21 20.4135 21 19.6875V9.1875C21 8.46152 20.4135 7.875 19.6875 7.875ZM10.5 10.5C10.8481 10.5 11.1819 10.6383 11.4281 10.8844C11.6742 11.1306 11.8125 11.4644 11.8125 11.8125C11.8125 12.1606 11.6742 12.4944 11.4281 12.7406C11.1819 12.9867 10.8481 13.125 10.5 13.125C10.1519 13.125 9.81806 12.9867 9.57192 12.7406C9.32578 12.4944 9.1875 12.1606 9.1875 11.8125C9.1875 11.4644 9.32578 11.1306 9.57192 10.8844C9.81806 10.6383 10.1519 10.5 10.5 10.5ZM14.4375 11.8125C14.4375 11.4644 14.5758 11.1306 14.8219 10.8844C15.0681 10.6383 15.4019 10.5 15.75 10.5C16.0981 10.5 16.4319 10.6383 16.6781 10.8844C16.9242 11.1306 17.0625 11.4644 17.0625 11.8125C17.0625 12.1606 16.9242 12.4944 16.6781 12.7406C16.4319 12.9867 16.0981 13.125 15.75 13.125C15.4019 13.125 15.0681 12.9867 14.8219 12.7406C14.5758 12.4944 14.4375 12.1606 14.4375 11.8125ZM15.75 15.75C16.0981 15.75 16.4319 15.8883 16.6781 16.1344C16.9242 16.3806 17.0625 16.7144 17.0625 17.0625C17.0625 17.4106 16.9242 17.7444 16.6781 17.9906C16.4319 18.2367 16.0981 18.375 15.75 18.375C15.4019 18.375 15.0681 18.2367 14.8219 17.9906C14.5758 17.7444 14.4375 17.4106 14.4375 17.0625C14.4375 16.7144 14.5758 16.3806 14.8219 16.1344C15.0681 15.8883 15.4019 15.75 15.75 15.75ZM9.1875 17.0625C9.1875 16.7144 9.32578 16.3806 9.57192 16.1344C9.81806 15.8883 10.1519 15.75 10.5 15.75C10.8481 15.75 11.1819 15.8883 11.4281 16.1344C11.6742 16.3806 11.8125 16.7144 11.8125 17.0625C11.8125 17.4106 11.6742 17.7444 11.4281 17.9906C11.1819 18.2367 10.8481 18.375 10.5 18.375C10.1519 18.375 9.81806 18.2367 9.57192 17.9906C9.32578 17.7444 9.1875 17.4106 9.1875 17.0625Z" fill="#122A72"/>
</svg>
