<svg width="16" height="23" viewBox="0 0 16 23" fill="none" xmlns="http://www.w3.org/2000/svg">
<g id="file-word">
<path id="Primary" d="M3.33333 2C2.04635 2 1 3.06504 1 4.375V18.625C1 19.935 2.04635 21 3.33333 21H12.6667C13.9536 21 15 19.935 15 18.625V7.9375H10.3333C9.68802 7.9375 9.16667 7.40684 9.16667 6.75V2H3.33333ZM10.3333 2V6.75H15L10.3333 2ZM5.04688 11.5408L6.02396 14.851L7.17604 11.5C7.3 11.1438 7.63177 10.9025 8.00365 10.9025C8.37552 10.9025 8.70729 11.14 8.83125 11.5L9.98333 14.851L10.9531 11.5408C11.0917 11.0695 11.5802 10.8023 12.0432 10.9434C12.5062 11.0844 12.7687 11.5816 12.6302 12.0529L10.8802 17.9904C10.7708 18.3615 10.4427 18.6176 10.0635 18.625C9.68437 18.6324 9.34167 18.3949 9.21771 18.0275L8 14.491L6.78594 18.0275C6.66198 18.3912 6.31927 18.6324 5.9401 18.625C5.56094 18.6176 5.22917 18.3615 5.12344 17.9904L3.37344 12.0529C3.2349 11.5816 3.4974 11.0844 3.96042 10.9434C4.42344 10.8023 4.91198 11.0695 5.05052 11.5408H5.04688Z" fill="#122A72"/>
</g>
</svg>
