<svg width="18" height="23" viewBox="0 0 18 23" fill="none" xmlns="http://www.w3.org/2000/svg">
<g id="file-pdf">
<path id="Primary" d="M1 4.25C1 3.00898 1.98367 2 3.19355 2H8.67742V6.5C8.67742 7.12227 9.16754 7.625 9.77419 7.625H14.1613V12.6875H7.03226C5.82238 12.6875 4.83871 13.6965 4.83871 14.9375V20H3.19355C1.98367 20 1 18.991 1 17.75V4.25ZM14.1613 6.5H9.77419V2L14.1613 6.5ZM7.03226 14.375H8.12903C9.1881 14.375 10.0484 15.2574 10.0484 16.3438C10.0484 17.4301 9.1881 18.3125 8.12903 18.3125H7.58065V19.4375C7.58065 19.7469 7.33387 20 7.03226 20C6.73065 20 6.48387 19.7469 6.48387 19.4375V17.75V14.9375C6.48387 14.6281 6.73065 14.375 7.03226 14.375ZM8.12903 17.1875C8.58488 17.1875 8.95161 16.8113 8.95161 16.3438C8.95161 15.8762 8.58488 15.5 8.12903 15.5H7.58065V17.1875H8.12903ZM11.4194 14.375H12.5161C13.4244 14.375 14.1613 15.1309 14.1613 16.0625V18.3125C14.1613 19.2441 13.4244 20 12.5161 20H11.4194C11.1177 20 10.871 19.7469 10.871 19.4375V14.9375C10.871 14.6281 11.1177 14.375 11.4194 14.375ZM12.5161 18.875C12.8177 18.875 13.0645 18.6219 13.0645 18.3125V16.0625C13.0645 15.7531 12.8177 15.5 12.5161 15.5H11.9677V18.875H12.5161ZM15.2581 14.9375C15.2581 14.6281 15.5048 14.375 15.8065 14.375H17.4516C17.7532 14.375 18 14.6281 18 14.9375C18 15.2469 17.7532 15.5 17.4516 15.5H16.3548V16.625H17.4516C17.7532 16.625 18 16.8781 18 17.1875C18 17.4969 17.7532 17.75 17.4516 17.75H16.3548V19.4375C16.3548 19.7469 16.1081 20 15.8065 20C15.5048 20 15.2581 19.7469 15.2581 19.4375V17.1875V14.9375Z" fill="#122A72"/>
</g>
</svg>
