<svg width="17" height="17" viewBox="0 0 17 17" fill="none" xmlns="http://www.w3.org/2000/svg">
<path d="M4.5 2.5V5.5H6.5V2.5H12.5844L13.5 3.41563V5.5H15.5V3.41563C15.5 2.88438 15.2906 2.375 14.9156 2L14 1.08438C13.625 0.709375 13.1156 0.5 12.5844 0.5H6.5C5.39687 0.5 4.5 1.39688 4.5 2.5ZM0.5 5.5V15.5C0.5 16.0531 0.946875 16.5 1.5 16.5H2.5C3.05312 16.5 3.5 16.0531 3.5 15.5V5.5C3.5 4.94688 3.05312 4.5 2.5 4.5H1.5C0.946875 4.5 0.5 4.94688 0.5 5.5ZM15.5 6.5H4.5V15.5C4.5 16.0531 4.94688 16.5 5.5 16.5H15.5C16.0531 16.5 16.5 16.0531 16.5 15.5V7.5C16.5 6.94688 16.0531 6.5 15.5 6.5ZM8.5 8.5C8.76522 8.5 9.01957 8.60536 9.20711 8.79289C9.39464 8.98043 9.5 9.23478 9.5 9.5C9.5 9.76522 9.39464 10.0196 9.20711 10.2071C9.01957 10.3946 8.76522 10.5 8.5 10.5C8.23478 10.5 7.98043 10.3946 7.79289 10.2071C7.60536 10.0196 7.5 9.76522 7.5 9.5C7.5 9.23478 7.60536 8.98043 7.79289 8.79289C7.98043 8.60536 8.23478 8.5 8.5 8.5ZM11.5 9.5C11.5 9.23478 11.6054 8.98043 11.7929 8.79289C11.9804 8.60536 12.2348 8.5 12.5 8.5C12.7652 8.5 13.0196 8.60536 13.2071 8.79289C13.3946 8.98043 13.5 9.23478 13.5 9.5C13.5 9.76522 13.3946 10.0196 13.2071 10.2071C13.0196 10.3946 12.7652 10.5 12.5 10.5C12.2348 10.5 11.9804 10.3946 11.7929 10.2071C11.6054 10.0196 11.5 9.76522 11.5 9.5ZM12.5 12.5C12.7652 12.5 13.0196 12.6054 13.2071 12.7929C13.3946 12.9804 13.5 13.2348 13.5 13.5C13.5 13.7652 13.3946 14.0196 13.2071 14.2071C13.0196 14.3946 12.7652 14.5 12.5 14.5C12.2348 14.5 11.9804 14.3946 11.7929 14.2071C11.6054 14.0196 11.5 13.7652 11.5 13.5C11.5 13.2348 11.6054 12.9804 11.7929 12.7929C11.9804 12.6054 12.2348 12.5 12.5 12.5ZM7.5 13.5C7.5 13.2348 7.60536 12.9804 7.79289 12.7929C7.98043 12.6054 8.23478 12.5 8.5 12.5C8.76522 12.5 9.01957 12.6054 9.20711 12.7929C9.39464 12.9804 9.5 13.2348 9.5 13.5C9.5 13.7652 9.39464 14.0196 9.20711 14.2071C9.01957 14.3946 8.76522 14.5 8.5 14.5C8.23478 14.5 7.98043 14.3946 7.79289 14.2071C7.60536 14.0196 7.5 13.7652 7.5 13.5Z" fill="#122A72"/>
</svg>
