<svg width="17" height="17" viewBox="0 0 17 17" fill="none" xmlns="http://www.w3.org/2000/svg">
<path d="M5.65312 1.26897C5.4125 0.687716 4.77812 0.378341 4.17188 0.543966L1.42188 1.29397C0.878125 1.44397 0.5 1.93772 0.5 2.50022C0.5 10.2315 6.76875 16.5002 14.5 16.5002C15.0625 16.5002 15.5563 16.1221 15.7063 15.5783L16.4563 12.8283C16.6219 12.2221 16.3125 11.5877 15.7312 11.3471L12.7312 10.0971C12.2219 9.88459 11.6313 10.0315 11.2844 10.4596L10.0219 12.0002C7.82188 10.9596 6.04063 9.17834 5 6.97834L6.54063 5.71897C6.96875 5.36897 7.11562 4.78147 6.90312 4.27209L5.65312 1.27209V1.26897Z" fill="#122A72"/>
</svg>
