<svg xmlns="http://www.w3.org/2000/svg" width="17" height="17" viewBox="0 0 17 17" fill="none">
<path id="Globe" d="M12.6693 7.68523C12.635 6.53791 12.4586 5.3992 12.1441 4.2949C12.6836 4.10573 13.204 3.8666 13.6986 3.58065C14.695 4.73013 15.2941 6.16793 15.4075 7.68209H12.6693V7.68523ZM12.1441 12.1726C12.4588 11.0683 12.6352 9.92956 12.6693 8.78222H15.4159C15.3006 10.2959 14.7018 11.7332 13.707 12.8837C13.2092 12.5998 12.6854 12.3618 12.1441 12.1726ZM11.7786 13.2183C12.1588 13.3519 12.529 13.512 12.8867 13.6973C12.2831 14.201 11.6008 14.603 10.8669 14.8873C11.2383 14.3688 11.5451 13.8073 11.7807 13.2152L11.7786 13.2183ZM4.76122 13.2183C4.99574 13.8106 5.30152 14.3725 5.67187 14.8915C4.93789 14.6076 4.25613 14.2048 3.65416 13.6993C4.01104 13.511 4.38142 13.3491 4.76227 13.2152L4.76122 13.2183ZM3.87368 8.78431C3.90798 9.93163 4.08437 11.0703 4.39885 12.1746C3.85939 12.3638 3.33894 12.6029 2.84434 12.8889C1.84638 11.7388 1.24584 10.2999 1.13123 8.78431H3.87368ZM4.39885 4.29699C4.08413 5.40124 3.90774 6.53998 3.87368 7.68732H1.13123C1.24559 6.17447 1.84293 4.73768 2.83594 3.58693C3.33375 3.87077 3.85654 4.10879 4.3978 4.29804L4.39885 4.29699ZM4.76437 3.25124C4.3842 3.11761 4.01392 2.95756 3.65626 2.77229C4.25804 2.2693 4.93906 1.86863 5.67187 1.58641C5.30218 2.10419 4.99676 2.6646 4.76227 3.25542L4.76437 3.25124ZM10.869 1.58954C11.6036 1.87263 12.286 2.27474 12.8888 2.77961C12.5317 2.96604 12.1613 3.12612 11.7807 3.25856C11.5469 2.66698 11.2407 2.1064 10.869 1.58954ZM8.82291 3.82536V1.21935C9.72688 1.73878 10.4059 2.57277 10.7293 3.56078C10.1029 3.70463 9.46495 3.79316 8.82291 3.82536ZM8.82291 7.68523V4.92235C9.5886 4.89098 10.3494 4.78592 11.0948 4.60863C11.3761 5.61325 11.5344 6.64802 11.5664 7.69046H8.82291V7.68523ZM8.82291 11.5482V8.78431H11.5664C11.5344 9.82675 11.3761 10.8615 11.0948 11.8661C10.3496 11.6878 9.58871 11.5806 8.82291 11.5482ZM8.82291 12.6452C9.46494 12.6769 10.1029 12.765 10.7293 12.9088C10.4061 13.8972 9.72708 14.7316 8.82291 15.2512V12.6452ZM7.71795 12.6452V15.2512C6.81398 14.7318 6.13495 13.8978 5.81157 12.9098C6.43832 12.7659 7.07556 12.6774 7.71795 12.6452ZM7.71795 8.78536V11.5482C6.9524 11.5812 6.19171 11.6862 5.44605 11.862C5.16547 10.8586 5.00748 9.8253 4.97549 8.78431H7.719L7.71795 8.78536ZM7.71795 4.92235V7.68523H4.97549C5.00732 6.64209 5.16567 5.60661 5.4471 4.60131C6.19222 4.78106 6.95202 4.88858 7.71795 4.92235ZM7.71795 3.82536C7.07592 3.79373 6.43797 3.70554 5.81157 3.56183C6.13391 2.57268 6.81364 1.73791 7.719 1.21935L7.71795 3.82536ZM8.27148 6.64199e-08C6.63554 6.64199e-08 5.03633 0.482992 3.67609 1.3879C2.31586 2.2928 1.25568 3.57898 0.629632 5.08378C0.00358392 6.58859 -0.160219 8.24443 0.158938 9.84192C0.478095 11.4394 1.26588 12.9068 2.42266 14.0585C3.57945 15.2103 5.05329 15.9946 6.65779 16.3124C8.2623 16.6301 9.92542 16.467 11.4368 15.8437C12.9483 15.2204 14.2401 14.1649 15.149 12.8106C16.0578 11.4563 16.543 9.86408 16.543 8.23529C16.5431 7.15378 16.3292 6.08284 15.9136 5.08362C15.498 4.08441 14.8887 3.1765 14.1206 2.41176C13.3525 1.64701 12.4406 1.04041 11.437 0.626595C10.4334 0.212781 9.35775 -0.000137295 8.27148 6.64199e-08Z" fill="#122a72"/>
</svg>