<svg width="48" height="48" viewBox="0 0 48 48" fill="none" xmlns="http://www.w3.org/2000/svg">
<path fill-rule="evenodd" clip-rule="evenodd" d="M11.8372 4H13.8956C14.9639 3.99998 15.8556 3.99996 16.5841 4.05948C17.3439 4.12156 18.0572 4.25578 18.7317 4.59946C19.7666 5.12676 20.608 5.96816 21.1352 7.00306C21.479 7.67758 21.6132 8.3909 21.6752 9.15066C21.7348 9.87912 21.7348 10.7708 21.7348 11.8391V13.8976C21.7348 14.9659 21.7348 15.8576 21.6752 16.586C21.6132 17.3458 21.479 18.0591 21.1352 18.7337C20.608 19.7685 19.7666 20.61 18.7317 21.1372C18.0572 21.481 17.3439 21.6152 16.5841 21.6772C15.8556 21.7368 14.9639 21.7368 13.8957 21.7368H11.8371C10.7688 21.7368 9.87717 21.7368 9.14871 21.6772C8.38895 21.6152 7.67563 21.481 7.00111 21.1372C5.96621 20.61 5.12481 19.7685 4.59751 18.7337C4.25383 18.0591 4.11961 17.3458 4.05753 16.586C3.99801 15.8576 3.99803 14.9659 3.99805 13.8976V11.8391C3.99803 10.7708 3.99801 9.87914 4.05753 9.15066C4.11961 8.3909 4.25383 7.67758 4.59751 7.00306C5.12481 5.96816 5.96621 5.12676 7.00111 4.59946C7.67563 4.25578 8.38895 4.12156 9.14871 4.05948C9.87717 3.99996 10.7689 3.99998 11.8372 4ZM9.39301 7.04952C8.81877 7.09644 8.54419 7.1802 8.36307 7.27248C7.89267 7.51216 7.51021 7.89462 7.27053 8.36502C7.17825 8.54614 7.09449 8.82072 7.04757 9.39496C6.99921 9.98672 6.99805 10.7551 6.99805 11.9V13.8367C6.99805 14.9816 6.99921 15.75 7.04757 16.3417C7.09449 16.916 7.17825 17.1906 7.27053 17.3717C7.51021 17.8421 7.89267 18.2245 8.36307 18.4642C8.54419 18.5565 8.81877 18.6403 9.39301 18.6872C9.98477 18.7355 10.7532 18.7367 11.898 18.7367H13.8347C14.9796 18.7367 15.748 18.7355 16.3398 18.6872C16.914 18.6403 17.1886 18.5565 17.3697 18.4642C17.8401 18.2245 18.2226 17.8421 18.4623 17.3717C18.5545 17.1906 18.6383 16.916 18.6852 16.3417C18.7336 15.75 18.7347 14.9816 18.7347 13.8367V11.9C18.7347 10.7551 18.7336 9.98672 18.6852 9.39496C18.6383 8.82072 18.5545 8.54614 18.4623 8.36502C18.2226 7.89462 17.8401 7.51216 17.3697 7.27248C17.1886 7.1802 16.914 7.09644 16.3398 7.04952C15.748 7.00116 14.9796 7 13.8347 7H11.898C10.7532 7 9.98477 7.00116 9.39301 7.04952ZM34.1004 4H36.1588C37.2272 3.99998 38.1188 3.99996 38.8472 4.05948C39.607 4.12156 40.3204 4.25578 40.9948 4.59946C42.0298 5.12676 42.8712 5.96816 43.3984 7.00306C43.7422 7.67758 43.8764 8.3909 43.9384 9.15066C43.998 9.87912 43.998 10.7708 43.998 11.8391V13.8976C43.998 14.9659 43.998 15.8576 43.9384 16.586C43.8764 17.3458 43.7422 18.0591 43.3984 18.7337C42.8712 19.7685 42.0298 20.61 40.9948 21.1372C40.3204 21.481 39.607 21.6152 38.8472 21.6772C38.1188 21.7368 37.2272 21.7368 36.1588 21.7368H34.1004C33.032 21.7368 32.1404 21.7368 31.412 21.6772C30.6522 21.6152 29.9388 21.481 29.2642 21.1372C28.2294 20.61 27.388 19.7685 26.8608 18.7337C26.517 18.0591 26.3828 17.3458 26.3208 16.586C26.2612 15.8576 26.2612 14.9659 26.2612 13.8976V11.8391C26.2612 10.7708 26.2612 9.87912 26.3208 9.15066C26.3828 8.3909 26.517 7.67758 26.8608 7.00306C27.388 5.96816 28.2294 5.12676 29.2642 4.59946C29.9388 4.25578 30.6522 4.12156 31.412 4.05948C32.1404 3.99996 33.032 3.99998 34.1004 4ZM31.6562 7.04952C31.082 7.09644 30.8074 7.1802 30.6262 7.27248C30.1558 7.51216 29.7734 7.89462 29.5338 8.36502C29.4414 8.54614 29.3576 8.82072 29.3108 9.39496C29.2624 9.98672 29.2612 10.7551 29.2612 11.9V13.8367C29.2612 14.9816 29.2624 15.75 29.3108 16.3417C29.3576 16.916 29.4414 17.1906 29.5338 17.3717C29.7734 17.8421 30.1558 18.2245 30.6262 18.4642C30.8074 18.5565 31.082 18.6403 31.6562 18.6872C32.248 18.7355 33.0164 18.7367 34.1612 18.7367H36.098C37.2428 18.7367 38.0112 18.7355 38.603 18.6872C39.1772 18.6403 39.4518 18.5565 39.633 18.4642C40.1034 18.2245 40.4858 17.8421 40.7254 17.3717C40.8178 17.1906 40.9016 16.916 40.9484 16.3417C40.9968 15.75 40.998 14.9816 40.998 13.8367V11.9C40.998 10.7551 40.9968 9.98672 40.9484 9.39496C40.9016 8.82072 40.8178 8.54614 40.7254 8.36502C40.4858 7.89462 40.1034 7.51216 39.633 7.27248C39.4518 7.1802 39.1772 7.09644 38.603 7.04952C38.0112 7.00116 37.2428 7 36.098 7H34.1612C33.0164 7 32.248 7.00116 31.6562 7.04952ZM11.8371 26.2632H13.8956C14.9639 26.2632 15.8556 26.2632 16.5841 26.3228C17.3439 26.3848 18.0572 26.519 18.7317 26.8628C19.7666 27.39 20.608 28.2314 21.1352 29.2664C21.479 29.9408 21.6132 30.6542 21.6752 31.414C21.7348 32.1424 21.7348 33.034 21.7348 34.1024V36.161C21.7348 37.2292 21.7348 38.1208 21.6752 38.8494C21.6132 39.6092 21.479 40.3224 21.1352 40.997C20.608 42.0318 19.7666 42.8732 18.7317 43.4006C18.0572 43.7442 17.3439 43.8784 16.5841 43.9406C15.8556 44 14.9639 44 13.8957 44H11.8371C10.7688 44 9.87717 44 9.14871 43.9406C8.38895 43.8784 7.67563 43.7442 7.00111 43.4006C5.96621 42.8732 5.12481 42.0318 4.59751 40.997C4.25383 40.3224 4.11961 39.6092 4.05753 38.8494C3.99801 38.1208 3.99803 37.2292 3.99805 36.1608V34.1024C3.99803 33.0342 3.99801 32.1424 4.05753 31.414C4.11961 30.6542 4.25383 29.9408 4.59751 29.2664C5.12481 28.2314 5.96621 27.39 7.00111 26.8628C7.67563 26.519 8.38895 26.3848 9.14871 26.3228C9.87717 26.2632 10.7688 26.2632 11.8371 26.2632ZM9.39301 29.3128C8.81877 29.3598 8.54419 29.4434 8.36307 29.5358C7.89267 29.7754 7.51021 30.158 7.27053 30.6284C7.17825 30.8094 7.09449 31.084 7.04757 31.6582C6.99921 32.25 6.99805 33.0184 6.99805 34.1634V36.1C6.99805 37.2448 6.99921 38.0132 7.04757 38.605C7.09449 39.1792 7.17825 39.4538 7.27053 39.635C7.51021 40.1054 7.89267 40.4878 8.36307 40.7276C8.54419 40.8198 8.81877 40.9036 9.39301 40.9504C9.98477 40.9988 10.7532 41 11.898 41H13.8347C14.9796 41 15.748 40.9988 16.3398 40.9504C16.914 40.9036 17.1886 40.8198 17.3697 40.7276C17.8401 40.4878 18.2226 40.1054 18.4623 39.635C18.5545 39.4538 18.6383 39.1792 18.6852 38.605C18.7336 38.0132 18.7347 37.2448 18.7347 36.1V34.1632C18.7347 33.0184 18.7336 32.25 18.6852 31.6582C18.6383 31.084 18.5545 30.8094 18.4623 30.6284C18.2226 30.158 17.8401 29.7754 17.3697 29.5358C17.1886 29.4434 16.914 29.3598 16.3398 29.3128C15.748 29.2644 14.9796 29.2632 13.8347 29.2632H11.898C10.7532 29.2632 9.98477 29.2644 9.39301 29.3128ZM34.1004 26.2632H36.1588C37.2272 26.2632 38.1188 26.2632 38.8472 26.3228C39.607 26.3848 40.3204 26.519 40.9948 26.8628C42.0298 27.39 42.8712 28.2314 43.3984 29.2664C43.7422 29.9408 43.8764 30.6542 43.9384 31.414C43.998 32.1424 43.998 33.0342 43.998 34.1024V36.161C43.998 37.2292 43.998 38.1208 43.9384 38.8494C43.8764 39.6092 43.7422 40.3224 43.3984 40.997C42.8712 42.0318 42.0298 42.8732 40.9948 43.4006C40.3204 43.7442 39.607 43.8784 38.8472 43.9406C38.1188 44 37.2272 44 36.1588 44H34.1004C33.032 44 32.1404 44 31.412 43.9406C30.6522 43.8784 29.9388 43.7442 29.2642 43.4006C28.2294 42.8732 27.388 42.0318 26.8608 40.997C26.517 40.3224 26.3828 39.6092 26.3208 38.8494C26.2612 38.1208 26.2612 37.2292 26.2612 36.161V34.1024C26.2612 33.0342 26.2612 32.1424 26.3208 31.414C26.3828 30.6542 26.517 29.9408 26.8608 29.2664C27.388 28.2314 28.2294 27.39 29.2642 26.8628C29.9388 26.519 30.6522 26.3848 31.412 26.3228C32.1404 26.2632 33.032 26.2632 34.1004 26.2632ZM31.6562 29.3128C31.082 29.3598 30.8074 29.4434 30.6262 29.5358C30.1558 29.7754 29.7734 30.158 29.5338 30.6284C29.4414 30.8094 29.3576 31.084 29.3108 31.6582C29.2624 32.25 29.2612 33.0184 29.2612 34.1634V36.1C29.2612 37.2448 29.2624 38.0132 29.3108 38.605C29.3576 39.1792 29.4414 39.4538 29.5338 39.635C29.7734 40.1054 30.1558 40.4878 30.6262 40.7276C30.8074 40.8198 31.082 40.9036 31.6562 40.9504C32.248 40.9988 33.0164 41 34.1612 41H36.098C37.2428 41 38.0112 40.9988 38.603 40.9504C39.1772 40.9036 39.4518 40.8198 39.633 40.7276C40.1034 40.4878 40.4858 40.1054 40.7254 39.635C40.8178 39.4538 40.9016 39.1792 40.9484 38.605C40.9968 38.0132 40.998 37.2448 40.998 36.1V34.1632C40.998 33.0184 40.9968 32.25 40.9484 31.6582C40.9016 31.084 40.8178 30.8094 40.7254 30.6284C40.4858 30.158 40.1034 29.7754 39.633 29.5358C39.4518 29.4434 39.1772 29.3598 38.603 29.3128C38.0112 29.2644 37.2428 29.2632 36.098 29.2632H34.1612C33.0164 29.2632 32.248 29.2644 31.6562 29.3128Z" fill="#122A72"/>
</svg>
