<svg width="52" height="45" viewBox="0 0 52 45" fill="none" xmlns="http://www.w3.org/2000/svg">
<g id="Group">
<path id="Vector" d="M8.34903 8.77732C10.6261 8.77732 12.4708 6.93111 12.4708 4.65577C12.4708 2.37804 10.6261 0.533325 8.34903 0.533325C6.0713 0.533325 4.22668 2.37804 4.22668 4.65577C4.22659 6.93111 6.0713 8.77732 8.34903 8.77732Z" fill="#4F2683"/>
<path id="Vector_2" d="M25.9708 19.7044V19.7106C25.9808 19.7106 25.9901 19.7075 26 19.7075C26.0101 19.7075 26.0193 19.7106 26.0293 19.7106V19.7044C27.578 19.6728 28.824 18.413 28.824 16.858C28.824 15.3007 27.578 14.0417 26.0293 14.0101V14.0038C26.0192 14.0038 26.01 14.0069 26 14.0069C25.9901 14.0069 25.9808 14.0038 25.9708 14.0038V14.0101C24.4219 14.0417 23.176 15.3007 23.176 16.858C23.1759 18.413 24.4219 19.6728 25.9708 19.7044Z" fill="#4F2683"/>
<path id="Vector_3" d="M43.6508 8.77732C45.9285 8.77732 47.7732 6.93111 47.7732 4.65577C47.7732 2.37804 45.9285 0.533325 43.6508 0.533325C41.3738 0.533325 39.5291 2.37804 39.5291 4.65577C39.5292 6.93111 41.3739 8.77732 43.6508 8.77732Z" fill="#4F2683"/>
<path id="Vector_4" d="M47.3071 10.7299H43.6933H41.8617C39.7612 10.7299 37.8379 11.9073 36.8824 13.7774L33.549 23.5272C33.4342 23.7507 33.2208 23.9093 32.9726 23.9533C32.7245 23.9973 32.4702 23.9226 32.2845 23.7507L30.2109 21.9554C29.5906 21.3812 28.777 21.0624 27.9317 21.0624H26H24.0683C23.223 21.0624 22.4094 21.3812 21.7891 21.9554L19.7156 23.7507C19.5299 23.9226 19.2756 23.9973 19.0275 23.9533C18.7795 23.9093 18.566 23.7507 18.4512 23.5272L15.1177 13.7774C14.1623 11.9073 12.239 10.7299 10.1385 10.7299H8.30672H4.69282C2.69564 10.7299 0.522705 12.9029 0.522705 14.9009V28.7553C0.522705 29.7539 1.33181 30.5637 2.3304 30.5637C2.82193 30.5637 2.3304 30.5637 3.59252 30.5637L4.27981 42.3793C4.27981 43.4418 5.14206 44.3032 6.20454 44.3032C6.65298 44.3032 7.4798 44.3032 8.30662 44.3032C9.13343 44.3032 9.96025 44.3032 10.4087 44.3032C11.4712 44.3032 12.3334 43.4418 12.3334 42.3793L13.0207 30.5637L13.0123 22.1277C13.0123 21.9945 13.1032 21.8796 13.2334 21.8473C13.3637 21.8164 13.4969 21.878 13.5578 21.9968L16.2023 28.5055C16.5214 29.1281 17.1131 29.5658 17.802 29.6883C18.4909 29.8108 19.1975 29.6043 19.7114 29.1297L22.2418 27.2658C22.3266 27.188 22.4491 27.1678 22.5539 27.2118C22.6595 27.2589 22.7274 27.3629 22.7274 27.4769L22.7366 34.7924L23.212 42.9717C23.212 43.7069 23.8093 44.3032 24.5451 44.3032C24.8549 44.3032 25.4274 44.3032 25.9999 44.3032C26.5724 44.3032 27.145 44.3032 27.4547 44.3032C28.1905 44.3032 28.7877 43.7069 28.7877 42.9717L29.2632 34.7924L29.2724 27.4769C29.2724 27.3628 29.3402 27.2589 29.4458 27.2118C29.5506 27.1678 29.6731 27.188 29.7579 27.2658L32.2884 29.1297C32.8023 29.6043 33.5089 29.8108 34.1978 29.6883C34.8867 29.5658 35.4785 29.1281 35.7974 28.5055L38.442 21.9968C38.5028 21.8781 38.6361 21.8164 38.7663 21.8473C38.8966 21.8796 38.9874 21.9944 38.9874 22.1277L38.979 30.5637L39.6663 42.3793C39.6663 43.4418 40.5285 44.3032 41.5911 44.3032C42.0396 44.3032 42.8664 44.3032 43.6932 44.3032C44.52 44.3032 45.3468 44.3032 45.7952 44.3032C46.8577 44.3032 47.7201 43.4418 47.7201 42.3793L48.4074 30.5637C49.6695 30.5637 49.1779 30.5637 49.6695 30.5637C50.6681 30.5637 51.4772 29.7539 51.4772 28.7553V14.9009C51.4773 12.9029 49.3044 10.7299 47.3071 10.7299Z" fill="#4F2683"/>
</g>
</svg>
