<svg width="70" height="71" viewBox="0 0 70 71" fill="none" xmlns="http://www.w3.org/2000/svg">
<mask id="mask0_8015_5377" style="mask-type:alpha" maskUnits="userSpaceOnUse" x="0" y="0" width="70" height="71">
<rect y="0.5" width="70" height="70" fill="#D9D9D9"/>
</mask>
<g mask="url(#mask0_8015_5377)">
<path d="M34.6184 60.7C34.8304 60.7 35.0424 60.6475 35.2544 60.5425C35.4665 60.4375 35.6255 60.3325 35.7315 60.2275L61.8105 34.3975C62.4466 33.7675 62.9104 33.0588 63.202 32.2713C63.4935 31.4838 63.6393 30.6963 63.6393 29.9088C63.6393 29.0688 63.4935 28.2681 63.202 27.5069C62.9104 26.7456 62.4466 26.0763 61.8105 25.4988L48.294 12.1112C47.7109 11.4813 47.0351 11.0219 46.2665 10.7331C45.4979 10.4444 44.6895 10.3 43.8414 10.3C43.0463 10.3 42.2513 10.4444 41.4562 10.7331C40.6611 11.0219 39.9455 11.4813 39.3094 12.1112L38.4348 12.9775L44.3185 18.8837C45.1136 19.6188 45.6967 20.4588 46.0677 21.4038C46.4387 22.3488 46.6243 23.3463 46.6243 24.3962C46.6243 26.6012 45.8689 28.4519 44.3582 29.9481C42.8476 31.4444 40.9791 32.1925 38.7528 32.1925C37.6927 32.1925 36.6723 32.0088 35.6917 31.6413C34.7111 31.2738 33.8498 30.7225 33.1077 29.9875L27.1445 24.16L13.2303 37.9413C13.0713 38.0988 12.9521 38.2694 12.8726 38.4531C12.793 38.6369 12.7533 38.8338 12.7533 39.0438C12.7533 39.4638 12.9123 39.8444 13.2303 40.1856C13.5484 40.5269 13.9194 40.6975 14.3435 40.6975C14.5555 40.6975 14.7675 40.645 14.9796 40.54C15.1916 40.435 15.3506 40.33 15.4566 40.225L26.2699 29.515L30.7224 33.925L19.9886 44.635C19.8296 44.7925 19.7104 44.9631 19.6308 45.1469C19.5513 45.3306 19.5116 45.5275 19.5116 45.7375C19.5116 46.1575 19.6706 46.525 19.9886 46.84C20.3067 47.155 20.6777 47.3125 21.1018 47.3125C21.3138 47.3125 21.5258 47.26 21.7378 47.155C21.9499 47.05 22.1089 46.945 22.2149 46.84L33.0282 36.2088L37.4807 40.6188L26.7469 51.3288C26.5879 51.4338 26.4686 51.5913 26.3891 51.8013C26.3096 52.0113 26.2699 52.2213 26.2699 52.4313C26.2699 52.8512 26.4289 53.2188 26.7469 53.5338C27.065 53.8488 27.436 54.0063 27.8601 54.0063C28.0721 54.0063 28.2709 53.9669 28.4564 53.8881C28.6419 53.8094 28.8142 53.6913 28.9732 53.5338L39.7865 42.9025L44.239 47.3125L33.4257 58.0225C33.2667 58.18 33.1474 58.3506 33.0679 58.5344C32.9884 58.7181 32.9487 58.915 32.9487 59.125C32.9487 59.545 33.1209 59.9125 33.4655 60.2275C33.81 60.5425 34.1943 60.7 34.6184 60.7ZM34.5388 67C32.5776 67 30.8417 66.3569 29.331 65.0706C27.8203 63.7844 26.9325 62.17 26.6674 60.2275C24.8652 59.965 23.3545 59.23 22.1354 58.0225C20.9163 56.815 20.1742 55.3188 19.9091 53.5338C18.1069 53.2713 16.6095 52.5231 15.4169 51.2894C14.2242 50.0556 13.4954 48.5725 13.2303 46.84C11.2161 46.5775 9.57292 45.7113 8.30077 44.2413C7.02862 42.7713 6.39255 41.0387 6.39255 39.0438C6.39255 37.9938 6.59132 36.9831 6.98887 36.0119C7.38642 35.0406 7.95623 34.1875 8.69832 33.4525L27.1445 15.2613L37.5602 25.5775C37.6662 25.735 37.8252 25.8531 38.0373 25.9319C38.2493 26.0106 38.4613 26.05 38.6733 26.05C39.1504 26.05 39.5479 25.9056 39.866 25.6169C40.184 25.3281 40.343 24.9475 40.343 24.475C40.343 24.265 40.3033 24.055 40.2238 23.845C40.1443 23.635 40.025 23.4775 39.866 23.3725L28.4961 12.1112C27.9131 11.4813 27.2372 11.0219 26.4687 10.7331C25.7001 10.4444 24.8917 10.3 24.0436 10.3C23.2485 10.3 22.4534 10.4444 21.6583 10.7331C20.8632 11.0219 20.1477 11.4813 19.5116 12.1112L8.30077 23.2938C7.82372 23.7663 7.42617 24.3175 7.10813 24.9475C6.7901 25.5775 6.57807 26.2075 6.47206 26.8375C6.36605 27.4675 6.36605 28.1106 6.47206 28.7669C6.57807 29.4231 6.7901 30.04 7.10813 30.6175L2.49659 35.185C1.59549 33.9775 0.932909 32.6519 0.50886 31.2081C0.0848099 29.7644 -0.0742087 28.3075 0.0318037 26.8375C0.137816 25.3675 0.50886 23.9369 1.14493 22.5456C1.78101 21.1544 2.65561 19.9075 3.76874 18.805L14.9796 7.70125C16.2517 6.49375 17.6696 5.575 19.2333 4.945C20.797 4.315 22.4004 4 24.0436 4C25.6868 4 27.2902 4.315 28.8539 4.945C30.4176 5.575 31.809 6.49375 33.0282 7.70125L33.9028 8.5675L34.7774 7.70125C36.0495 6.49375 37.4674 5.575 39.0311 4.945C40.5948 4.315 42.1982 4 43.8414 4C45.4846 4 47.0881 4.315 48.6517 4.945C50.2154 5.575 51.6068 6.49375 52.826 7.70125L66.2631 21.01C67.4822 22.2175 68.4098 23.6087 69.0459 25.1838C69.682 26.7588 70 28.36 70 29.9875C70 31.615 69.682 33.2031 69.0459 34.7519C68.4098 36.3006 67.4822 37.6787 66.2631 38.8862L40.184 64.6375C39.4419 65.3725 38.5806 65.95 37.6 66.37C36.6193 66.79 35.599 67 34.5388 67Z" fill="white"/>
</g>
</svg>
