<svg width="47" height="42" viewBox="0 0 47 42" fill="none" xmlns="http://www.w3.org/2000/svg">
<g id="Group 2">
<path id="Vector" d="M4.46035 4.61809C-1.03292 10.0685 -1.03292 18.9083 4.46031 24.3587L9.32795 29.1945C9.70036 29.5645 10.3022 29.5625 10.6722 29.1901C11.0422 28.8177 11.0402 28.2158 10.6678 27.8458L5.79971 23.0096C1.05548 18.3024 1.05548 10.6744 5.79929 5.96761C10.5477 1.25671 18.2489 1.25671 22.9973 5.96766C23.3679 6.33534 23.9657 6.33534 24.3363 5.96761C29.0842 1.25671 36.7859 1.25671 41.5338 5.96761C46.2781 10.6744 46.2781 18.3024 41.5339 23.0092L39.2577 25.2715C38.8854 25.6416 38.8835 26.2434 39.2536 26.6157C39.6237 26.9881 40.2255 26.9899 40.5978 26.6198L42.8734 24.3581C48.3665 18.9083 48.3665 10.0685 42.8728 4.61805C37.6016 -0.612025 29.1875 -0.819672 23.6668 3.99515C18.1457 -0.819672 9.73206 -0.612025 4.4604 4.61805L4.46035 4.61809Z" fill="#4F2683"/>
<path id="Vector_2" d="M26.4343 9.9126L39.254 22.7322C39.955 23.4332 39.955 24.5705 39.2538 25.2719C38.5525 25.9732 37.4155 25.9732 36.7145 25.2719L32.0202 20.5776C31.649 20.2064 31.0472 20.2064 30.676 20.5776C30.3048 20.9489 30.3048 21.5507 30.676 21.9219L35.3701 26.616C36.8133 28.0599 39.1543 28.0599 40.5982 26.616C42.0415 25.172 42.0415 22.8313 40.5982 21.388L27.7785 8.56832C27.4073 8.19712 26.8055 8.19712 26.4343 8.56832C26.0631 8.93952 26.0631 9.54135 26.4343 9.91255L26.4343 9.9126Z" fill="#4F2683"/>
<path id="Vector_3" d="M25.2606 16.4736L35.3627 26.5757C36.0641 27.2771 36.0641 28.4142 35.3628 29.1152C34.6612 29.8168 33.5245 29.8168 32.8231 29.1153L28.1294 24.4216C27.7582 24.0504 27.1564 24.0504 26.7852 24.4216C26.414 24.7929 26.414 25.3947 26.7852 25.7659L31.4789 30.4595C32.9227 31.9034 35.2631 31.9034 36.7069 30.4595C38.1508 29.0163 38.1508 26.6754 36.7069 25.2315L26.6048 15.1294C26.2336 14.7582 25.6318 14.7582 25.2606 15.1294C24.8894 15.5006 24.8894 16.1024 25.2606 16.4736Z" fill="#4F2683"/>
<path id="Vector_4" d="M21.4455 20.4408L31.4715 30.4669C32.173 31.1683 32.173 32.3053 31.4717 33.0063C30.7701 33.7079 29.6334 33.7079 28.932 33.0064L17.1152 21.1896C16.744 20.8184 16.1421 20.8184 15.7709 21.1896C15.3997 21.5608 15.3997 22.1626 15.7709 22.5339L27.5877 34.3507C29.0316 35.7945 31.3719 35.7945 32.8158 34.3507C34.2597 32.9074 34.2597 30.5665 32.8158 29.1226L22.7897 19.0966C22.4185 18.7254 21.8167 18.7254 21.4455 19.0966C21.0743 19.4678 21.0743 20.0696 21.4455 20.4408ZM26.2993 8.51874L18.7475 16.0231C18.523 16.2475 18.1956 16.3294 17.8944 16.2379L15.7075 15.5718C15.3639 15.4673 15.2558 15.035 15.5097 14.781L24.5898 5.70088C24.961 5.32968 24.961 4.72785 24.5898 4.35665C24.2186 3.98545 23.6168 3.98545 23.2456 4.35665L14.1653 13.4369C12.897 14.706 13.4376 16.8685 15.154 17.3904L17.3412 18.0566C18.3144 18.3522 19.371 18.088 20.0896 17.3694L27.6393 9.86719C28.0117 9.49715 28.0136 8.89532 27.6435 8.52296C27.2735 8.1506 26.6717 8.14869 26.2993 8.51874Z" fill="#4F2683"/>
<path id="Vector_5" d="M15.8487 25.0808C16.5145 24.415 16.5145 23.3354 15.8487 22.6696L15.7204 22.5413C15.0546 21.8754 13.9749 21.8754 13.3091 22.5413L10.556 25.2944C9.89016 25.9602 9.89016 27.0399 10.556 27.7057L10.6843 27.834C11.3501 28.4998 12.4298 28.4998 13.0956 27.834L15.8487 25.0808ZM17.193 26.4251L14.4398 29.1782C13.0316 30.5864 10.7483 30.5864 9.34008 29.1782L9.21175 29.0499C7.80352 27.6417 7.80352 25.3584 9.21175 23.9501L11.9649 21.197C13.3731 19.7888 15.6564 19.7888 17.0647 21.197L17.193 21.3253C18.6012 22.7335 18.6012 25.0168 17.193 26.4251Z" fill="#4F2683"/>
<path id="Vector_6" d="M19.7485 26.5695L19.6202 26.4412C18.9544 25.7753 17.8747 25.7753 17.209 26.4412L14.4558 29.1943C13.79 29.8602 13.79 30.9398 14.4558 31.6056L14.5841 31.7339C15.25 32.3997 16.3296 32.3997 16.9954 31.7339L19.7485 28.9807C20.4144 28.3149 20.4144 27.2353 19.7485 26.5695ZM18.3396 33.0782C16.9314 34.4864 14.6481 34.4864 13.2399 33.0782L13.1115 32.9498C11.7033 31.5416 11.7033 29.2583 13.1115 27.8501L15.8647 25.0969C17.2729 23.6887 19.5562 23.6887 20.9644 25.0969L21.0928 25.2253C22.501 26.6335 22.501 28.9168 21.0928 30.325L18.3396 33.0782Z" fill="#4F2683"/>
<path id="Vector_7" d="M23.6482 32.8804C24.314 32.2146 24.314 31.1349 23.6482 30.4691L23.5199 30.3408C22.854 29.675 21.7744 29.675 21.1086 30.3408L18.3555 33.094C17.6896 33.7598 17.6896 34.8394 18.3555 35.5052L18.4838 35.6335C19.1496 36.2994 20.2293 36.2994 20.895 35.6335L23.6482 32.8804ZM24.9924 34.2246L22.2393 36.9778C20.831 38.386 18.5478 38.386 17.1395 36.9778L17.0112 36.8494C15.603 35.4412 15.603 33.1579 17.0112 31.7497L19.7643 28.9965C21.1726 27.5883 23.4559 27.5883 24.8641 28.9965L24.9924 29.1249C26.4007 30.5331 26.4007 32.8164 24.9924 34.2246Z" fill="#4F2683"/>
<path id="Vector_8" d="M27.548 34.3689L27.4196 34.2406C26.7538 33.5748 25.6742 33.5748 25.0084 34.2406L22.2552 36.9938C21.5894 37.6596 21.5894 38.7392 22.2552 39.405L22.3836 39.5333C23.0494 40.1992 24.129 40.1992 24.7948 39.5333L27.548 36.7802C28.2138 36.1143 28.2138 35.0347 27.548 34.3689ZM26.139 40.8776C24.7308 42.2858 22.4475 42.2858 21.0393 40.8776L20.911 40.7492C19.5027 39.341 19.5027 37.0577 20.911 35.6495L23.6641 32.8963C25.0724 31.4881 27.3556 31.4881 28.7639 32.8963L28.8922 33.0247C30.3004 34.4329 30.3004 36.7162 28.8922 38.1244L26.139 40.8776Z" fill="#4F2683"/>
</g>
</svg>
