<svg width="40" height="40" viewBox="0 0 40 40" fill="none" xmlns="http://www.w3.org/2000/svg">
<g clip-path="url(#clip0_8324_5140)">
<path d="M20 8.75V28.125" stroke="white" stroke-linecap="round" stroke-linejoin="round"/>
<path d="M29.3377 23.7406C30.5955 23.8156 33.9471 23.5391 35.1752 18.7047C36.4392 13.725 37.5346 7.5 32.6455 7.5C27.7564 7.5 20.0002 14.9687 20.0002 19.9484C20.0002 14.9687 12.2439 7.5 7.35487 7.5C2.46581 7.5 3.56112 13.725 4.82518 18.7047C6.05331 23.5391 9.40487 23.8156 10.6627 23.7406" stroke="white" stroke-linecap="round" stroke-linejoin="round"/>
<path d="M13.7492 22.5C12.6662 22.6174 11.6403 23.0457 10.7955 23.7333C9.95059 24.421 9.32284 25.3385 8.988 26.3751C8.65316 27.4117 8.62556 28.523 8.90852 29.575C9.19148 30.6269 9.77291 31.5744 10.5826 32.3032C11.3923 33.0319 12.3956 33.5106 13.4715 33.6816C14.5473 33.8526 15.6496 33.7085 16.6453 33.2667C17.6411 32.8249 18.4876 32.1043 19.0827 31.1919C19.6779 30.2795 19.9962 29.2143 19.9992 28.125C20.0059 29.2094 20.3259 30.2687 20.9207 31.1754C21.5154 32.0821 22.3596 32.7976 23.3515 33.2357C24.3435 33.6738 25.4409 33.8158 26.5117 33.6447C27.5825 33.4736 28.581 32.9966 29.387 32.2712C30.193 31.5458 30.7722 30.6029 31.0548 29.5559C31.3373 28.509 31.3113 27.4028 30.9797 26.3703C30.6482 25.3379 30.0253 24.4233 29.186 23.7366C28.3467 23.0499 27.3269 22.6205 26.2492 22.5" stroke="white" stroke-linecap="round" stroke-linejoin="round"/>
</g>
<defs>
<clipPath id="clip0_8324_5140">
<rect width="40" height="40" fill="white"/>
</clipPath>
</defs>
</svg>
