<svg width="46" height="46" viewBox="0 0 46 46" fill="none" xmlns="http://www.w3.org/2000/svg">
<path id="Vector" d="M33.2273 20.6197L26.9068 23.9824L29.3205 33.2606L23 27.3901L16.6795 33.2606L19.0932 23.9824L12.7727 20.6197L20.5864 20.2351L23 12.8061L25.4136 20.2351L33.2273 20.6197ZM25.0455 6.66969V2.57878C25.0455 2.03629 24.83 1.51602 24.4464 1.13242C24.0628 0.748828 23.5425 0.533325 23 0.533325C22.4575 0.533325 21.9372 0.748828 21.5536 1.13242C21.17 1.51602 20.9545 2.03629 20.9545 2.57878V6.66969C20.9545 7.21218 21.17 7.73245 21.5536 8.11604C21.9372 8.49964 22.4575 8.71514 23 8.71514C23.5425 8.71514 24.0628 8.49964 24.4464 8.11604C24.83 7.73245 25.0455 7.21218 25.0455 6.66969ZM20.9545 39.397V43.4879C20.9545 44.0304 21.17 44.5506 21.5536 44.9342C21.9372 45.3178 22.4575 45.5333 23 45.5333C23.5425 45.5333 24.0628 45.3178 24.4464 44.9342C24.83 44.5506 25.0455 44.0304 25.0455 43.4879V39.397C25.0455 38.8545 24.83 38.3342 24.4464 37.9506C24.0628 37.567 23.5425 37.3515 23 37.3515C22.4575 37.3515 21.9372 37.567 21.5536 37.9506C21.17 38.3342 20.9545 38.8545 20.9545 39.397ZM38.9095 7.12378C38.526 6.74032 38.0058 6.5249 37.4634 6.5249C36.921 6.5249 36.4009 6.74032 36.0173 7.12378L33.125 10.0161C32.9296 10.2047 32.7738 10.4304 32.6666 10.68C32.5594 10.9296 32.503 11.198 32.5006 11.4695C32.4983 11.7411 32.55 12.0105 32.6529 12.2619C32.7557 12.5132 32.9076 12.7416 33.0996 12.9337C33.2917 13.1257 33.5201 13.2776 33.7715 13.3805C34.0228 13.4833 34.2922 13.5351 34.5638 13.5327C34.8354 13.5303 35.1038 13.4739 35.3533 13.3667C35.6029 13.2595 35.8286 13.1037 36.0173 12.9083L38.9095 10.0161C39.293 9.63247 39.5084 9.1123 39.5084 8.56992C39.5084 8.02753 39.293 7.50736 38.9095 7.12378ZM7.09045 38.9429C7.47403 39.3263 7.99421 39.5417 8.53659 39.5417C9.07897 39.5417 9.59915 39.3263 9.98273 38.9429L12.875 36.0506C13.2476 35.6648 13.4538 35.1481 13.4491 34.6118C13.4444 34.0755 13.2293 33.5625 12.8501 33.1832C12.4708 32.804 11.9578 32.5889 11.4215 32.5842C10.8852 32.5796 10.3685 32.7857 9.98273 33.1583L7.09045 36.0506C6.70699 36.4342 6.49157 36.9543 6.49157 37.4967C6.49157 38.0391 6.70699 38.5593 7.09045 38.9429ZM43.4545 20.9879H39.3636C38.8211 20.9879 38.3009 21.2034 37.9173 21.587C37.5337 21.9706 37.3182 22.4908 37.3182 23.0333C37.3182 23.5758 37.5337 24.0961 37.9173 24.4797C38.3009 24.8633 38.8211 25.0788 39.3636 25.0788H43.4545C43.997 25.0788 44.5173 24.8633 44.9009 24.4797C45.2845 24.0961 45.5 23.5758 45.5 23.0333C45.5 22.4908 45.2845 21.9706 44.9009 21.587C44.5173 21.2034 43.997 20.9879 43.4545 20.9879ZM2.54545 25.0788H6.63636C7.17885 25.0788 7.69912 24.8633 8.08272 24.4797C8.46631 24.0961 8.68182 23.5758 8.68182 23.0333C8.68182 22.4908 8.46631 21.9706 8.08272 21.587C7.69912 21.2034 7.17885 20.9879 6.63636 20.9879H2.54545C2.00297 20.9879 1.4827 21.2034 1.0991 21.587C0.715503 21.9706 0.5 22.4908 0.5 23.0333C0.5 23.5758 0.715503 24.0961 1.0991 24.4797C1.4827 24.8633 2.00297 25.0788 2.54545 25.0788ZM36.0173 38.9429C36.403 39.3155 36.9197 39.5216 37.456 39.517C37.9924 39.5123 38.5054 39.2972 38.8846 38.9179C39.2639 38.5387 39.479 38.0257 39.4837 37.4894C39.4883 36.9531 39.2821 36.4364 38.9095 36.0506L36.0173 33.1583C35.6315 32.7857 35.1148 32.5796 34.5785 32.5842C34.0422 32.5889 33.5292 32.804 33.1499 33.1832C32.7707 33.5625 32.5556 34.0755 32.5509 34.6118C32.5462 35.1481 32.7524 35.6648 33.125 36.0506L36.0173 38.9429ZM12.875 12.9083C13.2585 12.5247 13.4739 12.0046 13.4739 11.4622C13.4739 10.9198 13.2585 10.3996 12.875 10.0161L9.98273 7.12378C9.59695 6.75118 9.08026 6.54501 8.54395 6.54967C8.00764 6.55433 7.49461 6.76945 7.11537 7.1487C6.73613 7.52794 6.52101 8.04097 6.51635 8.57728C6.51169 9.11359 6.71786 9.63028 7.09045 10.0161L9.98273 12.9083C10.3663 13.2918 10.8865 13.5072 11.4289 13.5072C11.9712 13.5072 12.4914 13.2918 12.875 12.9083Z" fill="#4F2683"/>
</svg>
