<svg width="40" height="40" viewBox="0 0 40 40" fill="none" xmlns="http://www.w3.org/2000/svg">
<g id="Icons - Light" clip-path="url(#clip0_8258_18582)">
<path id="Vector" d="M14.375 21.5625C15.2379 21.5625 15.9375 20.8629 15.9375 20C15.9375 19.1371 15.2379 18.4375 14.375 18.4375C13.5121 18.4375 12.8125 19.1371 12.8125 20C12.8125 20.8629 13.5121 21.5625 14.375 21.5625Z" fill="white"/>
<path id="Vector_2" d="M25.625 21.5625C26.4879 21.5625 27.1875 20.8629 27.1875 20C27.1875 19.1371 26.4879 18.4375 25.625 18.4375C24.7621 18.4375 24.0625 19.1371 24.0625 20C24.0625 20.8629 24.7621 21.5625 25.625 21.5625Z" fill="white"/>
<path id="Vector_3" d="M24.375 26.25C23.062 27.067 21.5464 27.5 20 27.5C18.4536 27.5 16.938 27.067 15.625 26.25" stroke="white" stroke-width="1.5" stroke-linecap="round" stroke-linejoin="round"/>
<path id="Vector_4" d="M20 35C28.2843 35 35 28.2843 35 20C35 11.7157 28.2843 5 20 5C11.7157 5 5 11.7157 5 20C5 28.2843 11.7157 35 20 35Z" stroke="white" stroke-width="1.5" stroke-linecap="round" stroke-linejoin="round"/>
<path id="Vector_5" d="M20 5C17.5 8.125 17.5 11.25 17.5 11.25C17.5 11.913 17.7634 12.5489 18.2322 13.0178C18.7011 13.4866 19.337 13.75 20 13.75C20.663 13.75 21.2989 13.4866 21.7678 13.0178C22.2366 12.5489 22.5 11.913 22.5 11.25" stroke="white" stroke-width="1.5" stroke-linecap="round" stroke-linejoin="round"/>
</g>
<defs>
<clipPath id="clip0_8258_18582">
<rect width="40" height="40" fill="white"/>
</clipPath>
</defs>
</svg>
