<svg width="40" height="40" viewBox="0 0 40 40" fill="none" xmlns="http://www.w3.org/2000/svg">
<g id="Icons - Light" clip-path="url(#clip0_8258_11220)">
<path id="Vector" d="M14.375 23.4375C15.2379 23.4375 15.9375 22.7379 15.9375 21.875C15.9375 21.0121 15.2379 20.3125 14.375 20.3125C13.5121 20.3125 12.8125 21.0121 12.8125 21.875C12.8125 22.7379 13.5121 23.4375 14.375 23.4375Z" fill="white"/>
<path id="Vector_2" d="M25.625 23.4375C26.4879 23.4375 27.1875 22.7379 27.1875 21.875C27.1875 21.0121 26.4879 20.3125 25.625 20.3125C24.7621 20.3125 24.0625 21.0121 24.0625 21.875C24.0625 22.7379 24.7621 23.4375 25.625 23.4375Z" fill="white"/>
<path id="Vector_3" d="M20 30V33.75" stroke="white" stroke-width="1.5" stroke-linecap="round" stroke-linejoin="round"/>
<path id="Vector_4" d="M22.5 27.5L20 30L17.5 27.5" stroke="white" stroke-width="1.5" stroke-linecap="round" stroke-linejoin="round"/>
<path id="Vector_5" d="M16.25 7.5H23.75" stroke="white" stroke-width="1.5" stroke-linecap="round" stroke-linejoin="round"/>
<path id="Vector_6" d="M16.2498 7.50004L7.87015 5.03754C7.70482 4.99629 7.53279 4.98928 7.36464 5.01695C7.1965 5.04461 7.03578 5.10636 6.89237 5.1984C6.74896 5.29045 6.62589 5.41085 6.53071 5.55219C6.43553 5.69354 6.37026 5.85286 6.3389 6.02036L3.77328 19.7704C3.53265 21.0563 5.17953 21.8016 5.98578 20.7735L16.2498 7.50004Z" stroke="white" stroke-width="1.5" stroke-linecap="round" stroke-linejoin="round"/>
<path id="Vector_7" d="M23.75 7.50004L32.1297 5.03754C32.295 4.99629 32.4671 4.98928 32.6352 5.01695C32.8033 5.04461 32.9641 5.10636 33.1075 5.1984C33.2509 5.29045 33.374 5.41085 33.4691 5.55219C33.5643 5.69354 33.6296 5.85286 33.6609 6.02036L36.2266 19.7704C36.4672 21.0563 34.8203 21.8016 34.0141 20.7735L23.75 7.50004Z" stroke="white" stroke-width="1.5" stroke-linecap="round" stroke-linejoin="round"/>
<path id="Vector_8" d="M32.5 18.8093V28.75C32.5 30.076 31.9732 31.3478 31.0355 32.2855C30.0979 33.2232 28.8261 33.75 27.5 33.75H12.5C11.1739 33.75 9.90215 33.2232 8.96447 32.2855C8.02678 31.3478 7.5 30.076 7.5 28.75V18.8093" stroke="white" stroke-width="1.5" stroke-linecap="round" stroke-linejoin="round"/>
</g>
<defs>
<clipPath id="clip0_8258_11220">
<rect width="40" height="40" fill="white"/>
</clipPath>
</defs>
</svg>
