<svg width="25" height="24" viewBox="0 0 25 24" fill="none" xmlns="http://www.w3.org/2000/svg">
<g clip-path="url(#clip0_8019_11038)">
<path d="M7.84846 0.0839251C6.57166 0.144165 5.69974 0.347925 4.9375 0.647445C4.14862 0.954885 3.47998 1.36745 2.8147 2.03513C2.14942 2.70281 1.73974 3.37193 1.43446 4.16201C1.13902 4.92593 0.938859 5.79857 0.882459 7.07609C0.826059 8.35361 0.813579 8.76425 0.819819 12.023C0.826059 15.2817 0.840459 15.6902 0.902379 16.9703C0.963339 18.2469 1.16638 19.1186 1.4659 19.881C1.77382 20.6699 2.1859 21.3383 2.85382 22.0038C3.52174 22.6694 4.19038 23.0781 4.98238 23.3838C5.74558 23.6788 6.61846 23.8799 7.89574 23.9358C9.17302 23.9918 9.58414 24.0047 12.8419 23.9985C16.0997 23.9922 16.5098 23.9778 17.7897 23.9171C19.0697 23.8564 19.9368 23.6519 20.6995 23.3538C21.4884 23.0452 22.1573 22.6338 22.8223 21.9657C23.4873 21.2975 23.8968 20.6279 24.2018 19.8374C24.4975 19.0742 24.6984 18.2013 24.7538 16.925C24.8097 15.6441 24.8229 15.2351 24.8167 11.9769C24.8105 8.71865 24.7958 8.31017 24.7351 7.03049C24.6744 5.75081 24.4711 4.88177 24.1718 4.11881C23.8634 3.32993 23.4518 2.66201 22.7841 1.99601C22.1165 1.33001 21.4464 0.920805 20.6561 0.616485C19.8924 0.321045 19.02 0.119685 17.7427 0.0644851C16.4654 0.00928514 16.0543 -0.00487487 12.7953 0.00136513C9.53638 0.00760513 9.12838 0.0215251 7.84846 0.0839251ZM7.98862 21.777C6.81862 21.7262 6.18334 21.5318 5.75998 21.369C5.19934 21.153 4.79998 20.8919 4.37806 20.4741C3.95614 20.0562 3.69694 19.6554 3.47806 19.096C3.31366 18.6726 3.11566 18.0381 3.06094 16.8681C3.00142 15.6035 2.98894 15.2238 2.98198 12.0201C2.97502 8.81633 2.98726 8.43713 3.0427 7.17209C3.09262 6.00305 3.28822 5.36705 3.4507 4.94393C3.6667 4.38257 3.92686 3.98393 4.34566 3.56225C4.76446 3.14057 5.16406 2.88089 5.72398 2.66201C6.14686 2.49689 6.78142 2.30057 7.95094 2.24489C9.21646 2.18489 9.59566 2.17289 12.7989 2.16593C16.0022 2.15897 16.3824 2.17097 17.6484 2.22664C18.8174 2.27753 19.4537 2.4712 19.8763 2.63464C20.4372 2.85065 20.8363 3.11009 21.258 3.52961C21.6797 3.94913 21.9396 4.34729 22.1585 4.90841C22.3238 5.33009 22.5201 5.96441 22.5753 7.13465C22.6356 8.40017 22.6493 8.7796 22.655 11.9826C22.6608 15.1857 22.6495 15.5661 22.5941 16.8306C22.5429 18.0006 22.349 18.6362 22.1861 19.06C21.9701 19.6204 21.7097 20.02 21.2906 20.4414C20.8716 20.8629 20.4725 21.1226 19.9123 21.3414C19.4899 21.5063 18.8546 21.7031 17.6861 21.7588C16.4205 21.8183 16.0413 21.8308 12.8369 21.8378C9.63238 21.8447 9.25438 21.8318 7.98886 21.777M17.7713 5.58641C17.7717 5.87123 17.8567 6.14952 18.0153 6.38607C18.174 6.62262 18.3992 6.80681 18.6625 6.91535C18.9259 7.02389 19.2155 7.05189 19.4947 6.99583C19.774 6.93976 20.0303 6.80214 20.2314 6.60037C20.4324 6.3986 20.5691 6.14174 20.6241 5.86228C20.6792 5.58283 20.6501 5.29333 20.5406 5.03039C20.4311 4.76746 20.2461 4.5429 20.0089 4.38512C19.7718 4.22735 19.4932 4.14344 19.2084 4.14401C18.8265 4.14477 18.4607 4.29715 18.1912 4.56764C17.9217 4.83813 17.7706 5.20458 17.7713 5.58641ZM6.65686 12.0119C6.66358 15.4151 9.42742 18.1677 12.8299 18.1612C16.2324 18.1547 18.9869 15.3911 18.9804 11.9879C18.9739 8.58473 16.2093 5.83145 12.8064 5.83817C9.40342 5.84489 6.65038 8.60921 6.65686 12.0119ZM8.8183 12.0076C8.81673 11.2165 9.0498 10.4426 9.48804 9.78395C9.92627 9.12527 10.55 8.61134 11.2803 8.30714C12.0106 8.00294 12.8147 7.92213 13.591 8.07494C14.3672 8.22774 15.0807 8.6073 15.6412 9.16561C16.2018 9.72393 16.5842 10.4359 16.74 11.2115C16.8959 11.9872 16.8183 12.7916 16.517 13.5231C16.2157 14.2547 15.7042 14.8804 15.0473 15.3212C14.3903 15.7621 13.6174 15.9982 12.8263 15.9998C12.301 16.0009 11.7806 15.8985 11.2949 15.6984C10.8091 15.4984 10.3675 15.2046 9.99535 14.8339C9.62316 14.4632 9.32765 14.0228 9.12569 13.5378C8.92373 13.0529 8.81927 12.5329 8.8183 12.0076Z" fill="white"/>
</g>
<defs>
<clipPath id="clip0_8019_11038">
<rect width="24" height="24" fill="white" transform="translate(0.818359)"/>
</clipPath>
</defs>
</svg>
