<svg width="26" height="26" viewBox="0 0 26 26" fill="none" xmlns="http://www.w3.org/2000/svg">
<g clip-path="url(#clip0_8019_11046)">
<path d="M6.05101 8.36426H0.831464C0.599813 8.36426 0.412109 8.55204 0.412109 8.78361V25.5518C0.412109 25.7834 0.599813 25.9711 0.831464 25.9711H6.05101C6.28266 25.9711 6.47036 25.7834 6.47036 25.5518V8.78361C6.47036 8.55204 6.28266 8.36426 6.05101 8.36426Z" fill="white"/>
<path d="M3.44327 0.0283203C1.54409 0.0283203 -0.000976562 1.57171 -0.000976562 3.46879C-0.000976562 5.36671 1.54409 6.91069 3.44327 6.91069C5.34093 6.91069 6.88475 5.36662 6.88475 3.46879C6.88483 1.57171 5.34093 0.0283203 3.44327 0.0283203Z" fill="white"/>
<path d="M19.3276 7.94727C17.2313 7.94727 15.6816 8.84846 14.7416 9.87244V8.78338C14.7416 8.55181 14.5539 8.36402 14.3223 8.36402H9.32365C9.092 8.36402 8.9043 8.55181 8.9043 8.78338V25.5515C8.9043 25.7832 9.092 25.9709 9.32365 25.9709H14.5318C14.7634 25.9709 14.9511 25.7832 14.9511 25.5515V17.2552C14.9511 14.4595 15.7105 13.3704 17.6593 13.3704C19.7818 13.3704 19.9504 15.1164 19.9504 17.399V25.5516C19.9504 25.7833 20.1381 25.971 20.3698 25.971H25.5799C25.8115 25.971 25.9992 25.7833 25.9992 25.5516V16.354C25.9992 12.1969 25.2065 7.94727 19.3276 7.94727Z" fill="white"/>
</g>
<defs>
<clipPath id="clip0_8019_11046">
<rect width="26" height="26" fill="white" transform="translate(-0.000976562)"/>
</clipPath>
</defs>
</svg>
