<svg width="40" height="28" viewBox="0 0 40 28" fill="none" xmlns="http://www.w3.org/2000/svg">
<path fill-rule="evenodd" clip-rule="evenodd" d="M-0.00195312 2C-0.00195312 1.17158 0.669627 0.5 1.49805 0.5H38.498C39.3264 0.5 39.998 1.17158 39.998 2C39.998 2.82842 39.3264 3.5 38.498 3.5H1.49805C0.669627 3.5 -0.00195312 2.82842 -0.00195312 2ZM-0.00195312 14C-0.00195312 13.1716 0.669627 12.5 1.49805 12.5H38.498C39.3264 12.5 39.998 13.1716 39.998 14C39.998 14.8284 39.3264 15.5 38.498 15.5H1.49805C0.669627 15.5 -0.00195312 14.8284 -0.00195312 14ZM-0.00195312 26C-0.00195312 25.1716 0.669627 24.5 1.49805 24.5H38.498C39.3264 24.5 39.998 25.1716 39.998 26C39.998 26.8284 39.3264 27.5 38.498 27.5H1.49805C0.669627 27.5 -0.00195312 26.8284 -0.00195312 26Z" fill="#122A72"/>
</svg>
