<svg width="24" height="25" viewBox="0 0 24 25" fill="none" xmlns="http://www.w3.org/2000/svg">
<g id="location_on">
<mask id="mask0_601_7535" style="mask-type:alpha" maskUnits="userSpaceOnUse" x="0" y="0" width="24" height="25">
<rect id="Bounding box" y="0.0333252" width="24" height="24" fill="#283660"/>
</mask>
<g mask="url(#mask0_601_7535)">
<path id="location_on_2" d="M12 12.0333C12.55 12.0333 13.0208 11.8375 13.4125 11.4458C13.8042 11.0542 14 10.5833 14 10.0333C14 9.48333 13.8042 9.01249 13.4125 8.62083C13.0208 8.22916 12.55 8.03333 12 8.03333C11.45 8.03333 10.9792 8.22916 10.5875 8.62083C10.1958 9.01249 10 9.48333 10 10.0333C10 10.5833 10.1958 11.0542 10.5875 11.4458C10.9792 11.8375 11.45 12.0333 12 12.0333ZM12 22.0333C9.31667 19.75 7.3125 17.6292 5.9875 15.6708C4.6625 13.7125 4 11.9 4 10.2333C4 7.73333 4.80417 5.74166 6.4125 4.25833C8.02083 2.77499 9.88333 2.03333 12 2.03333C14.1167 2.03333 15.9792 2.77499 17.5875 4.25833C19.1958 5.74166 20 7.73333 20 10.2333C20 11.9 19.3375 13.7125 18.0125 15.6708C16.6875 17.6292 14.6833 19.75 12 22.0333Z" fill="#4F2683"/>
</g>
</g>
</svg>
