<svg width="21" height="20" viewBox="0 0 21 20" fill="none" xmlns="http://www.w3.org/2000/svg">
<mask id="mask0_8153_17" style="mask-type:alpha" maskUnits="userSpaceOnUse" x="0" y="0" width="21" height="20">
<rect x="0.457031" width="20" height="20" fill="black"/>
</mask>
<g mask="url(#mask0_8153_17)">
<path d="M5.33236 14.2498C6.04069 13.7082 6.83236 13.2811 7.70736 12.9686C8.58236 12.6561 9.49902 12.4998 10.4574 12.4998C11.4157 12.4998 12.3324 12.6561 13.2074 12.9686C14.0824 13.2811 14.874 13.7082 15.5824 14.2498C16.0685 13.6804 16.4469 13.0346 16.7178 12.3123C16.9886 11.5901 17.124 10.8193 17.124 9.99984C17.124 8.15262 16.4747 6.5797 15.1761 5.28109C13.8775 3.98248 12.3046 3.33317 10.4574 3.33317C8.61013 3.33317 7.03722 3.98248 5.73861 5.28109C4.44 6.5797 3.79069 8.15262 3.79069 9.99984C3.79069 10.8193 3.92611 11.5901 4.19694 12.3123C4.46777 13.0346 4.84625 13.6804 5.33236 14.2498ZM10.4574 10.8332C9.63791 10.8332 8.94694 10.5519 8.38444 9.98942C7.82194 9.42692 7.54069 8.73595 7.54069 7.9165C7.54069 7.09706 7.82194 6.40609 8.38444 5.84359C8.94694 5.28109 9.63791 4.99984 10.4574 4.99984C11.2768 4.99984 11.9678 5.28109 12.5303 5.84359C13.0928 6.40609 13.374 7.09706 13.374 7.9165C13.374 8.73595 13.0928 9.42692 12.5303 9.98942C11.9678 10.5519 11.2768 10.8332 10.4574 10.8332ZM10.4574 18.3332C9.30458 18.3332 8.22125 18.1144 7.20736 17.6769C6.19347 17.2394 5.31152 16.6457 4.56152 15.8957C3.81152 15.1457 3.21777 14.2637 2.78027 13.2498C2.34277 12.2359 2.12402 11.1526 2.12402 9.99984C2.12402 8.84706 2.34277 7.76373 2.78027 6.74984C3.21777 5.73595 3.81152 4.854 4.56152 4.104C5.31152 3.354 6.19347 2.76025 7.20736 2.32275C8.22125 1.88525 9.30458 1.6665 10.4574 1.6665C11.6101 1.6665 12.6935 1.88525 13.7074 2.32275C14.7212 2.76025 15.6032 3.354 16.3532 4.104C17.1032 4.854 17.6969 5.73595 18.1344 6.74984C18.5719 7.76373 18.7907 8.84706 18.7907 9.99984C18.7907 11.1526 18.5719 12.2359 18.1344 13.2498C17.6969 14.2637 17.1032 15.1457 16.3532 15.8957C15.6032 16.6457 14.7212 17.2394 13.7074 17.6769C12.6935 18.1144 11.6101 18.3332 10.4574 18.3332Z" fill="black"/>
</g>
</svg>
