<svg width="19" height="23" viewBox="0 0 19 23" fill="none" xmlns="http://www.w3.org/2000/svg">
<g id="Group">
<path id="Vector" d="M13.1656 15.4093C12.8048 15.3876 11.9372 15.439 11.0683 15.6041C10.5657 15.0954 10.1305 14.4546 9.80762 13.9261C10.8422 10.9512 10.187 10.1057 9.30502 10.1057C8.61241 10.1057 8.26659 10.8367 8.34355 11.6442C8.38248 12.0507 8.72674 12.9049 9.1505 13.7163C8.89054 14.4 8.42661 15.5556 7.96611 16.3919C7.42707 16.5557 6.96473 16.7377 6.63293 16.8913C4.98014 17.6599 4.84732 18.6862 5.19124 19.1211C5.84424 19.9472 7.23552 19.2344 8.63157 16.7377C9.58732 16.4659 10.8448 16.1038 10.9582 16.1038C10.9712 16.1038 10.9891 16.108 11.0099 16.1147C11.7066 16.7291 12.5295 17.4326 13.2068 17.5252C14.1868 17.6599 14.7447 16.9491 14.706 16.5071C14.6677 16.0649 14.4094 15.484 13.1656 15.4093ZM6.97878 18.1024C6.57483 18.5827 5.92149 19.0435 5.69092 18.8902C5.46005 18.7367 5.42172 18.2947 5.94096 17.7947C6.45985 17.2952 7.32842 17.036 7.459 16.9874C7.61326 16.93 7.65158 16.9874 7.65158 17.0644C7.65158 17.1413 7.38238 17.6216 6.97878 18.1024ZM8.74746 11.6439C8.70883 11.163 8.8046 10.7019 9.20855 10.6444C9.61186 10.5863 9.80444 11.0477 9.65079 11.7972C9.49687 12.5476 9.41962 13.0467 9.34296 13.1051C9.26605 13.1626 9.18969 12.97 9.18969 12.97C9.03552 12.6622 8.78578 12.1241 8.74746 11.6439ZM8.90137 16.161C9.11243 15.8145 9.65083 14.4121 9.65083 14.4121C9.76611 14.6237 10.6691 15.6992 10.6691 15.6992C10.6691 15.6992 9.28521 16.0074 8.90137 16.161ZM13.0906 16.7754C12.5142 16.6994 11.5342 16.0064 11.5342 16.0064C11.3998 15.949 12.6081 15.7848 13.072 15.8145C13.6682 15.8532 13.8796 16.1032 13.8796 16.3529C13.8796 16.6029 13.6682 16.8524 13.0906 16.7754Z" fill="#4F2683"/>
<path id="Vector_2" d="M18.0461 5.15933L13.8206 0.933449L13.4204 0.533325H12.8539H4.23641C2.20171 0.533325 0.54639 2.18899 0.54639 4.22438V4.50668H0V8.92098H0.54639V18.8426C0.54639 20.8777 2.20176 22.5333 4.23645 22.5333H14.7555C16.7909 22.5333 18.4462 20.8777 18.4462 18.8426V6.12591V5.55976L18.0461 5.15933ZM14.7555 21.1666H4.23641C2.95272 21.1666 1.91241 20.1262 1.91241 18.8426V8.92094H8.67181V4.50664H1.91241V4.22433C1.91241 2.94034 2.95272 1.89964 4.23641 1.89964H12.527V4.51618C12.527 5.58558 13.3945 6.45256 14.4639 6.45256H17.0801V18.8425C17.0801 20.1263 16.0395 21.1666 14.7555 21.1666ZM2.00823 7.66982V5.62649C2.00823 5.59044 2.03757 5.561 2.07371 5.561H2.72288C2.82987 5.561 2.92853 5.57858 3.01666 5.61308C3.10384 5.64724 3.18045 5.69515 3.24435 5.75582C3.30885 5.8168 3.35835 5.89092 3.39186 5.97587C3.42538 6.05918 3.44265 6.15023 3.44265 6.24631C3.44265 6.34437 3.42538 6.43597 3.39152 6.51839C3.358 6.6008 3.3085 6.67389 3.24465 6.73555C3.1811 6.79687 3.10414 6.84508 3.01601 6.87859C2.92853 6.91211 2.82987 6.92904 2.72288 6.92904H2.44891V7.66986C2.44891 7.70596 2.41957 7.7353 2.38347 7.7353H2.07375C2.03757 7.7353 2.00823 7.70591 2.00823 7.66982ZM4.01035 7.66982V5.62649C4.01035 5.59044 4.03974 5.561 4.07584 5.561H4.79333C4.92967 5.561 5.04976 5.58369 5.151 5.62838C5.25352 5.67401 5.34513 5.74654 5.42372 5.84361C5.46428 5.8947 5.49651 5.9512 5.5198 6.01187C5.54249 6.07096 5.55972 6.13485 5.57089 6.20124C5.58176 6.26702 5.58812 6.33792 5.59035 6.41423C5.59229 6.48702 5.59323 6.56527 5.59323 6.64828C5.59323 6.73095 5.59229 6.80924 5.59035 6.88203C5.58812 6.95804 5.58176 7.02924 5.57089 7.09533C5.55972 7.16176 5.54249 7.22531 5.5198 7.28435C5.49617 7.34566 5.46394 7.40221 5.42398 7.45231C5.34483 7.55037 5.25313 7.62285 5.15096 7.66784C5.05067 7.71253 4.93031 7.73522 4.79328 7.73522H4.07579C4.0397 7.7353 4.01035 7.70591 4.01035 7.66982ZM7.42997 6.46218C7.46606 6.46218 7.49541 6.49158 7.49541 6.52767V6.80611C7.49541 6.8422 7.46606 6.87159 7.42997 6.87159H6.64605V7.66991C6.64605 7.706 6.61666 7.73535 6.58057 7.73535H6.2708C6.23471 7.73535 6.20536 7.706 6.20536 7.66991V5.62657C6.20536 5.59052 6.23471 5.56109 6.2708 5.56109H7.45902C7.49507 5.56109 7.5245 5.59048 7.5245 5.62657V5.90501C7.5245 5.9411 7.49511 5.97049 7.45902 5.97049H6.64605V6.46223L7.42997 6.46218Z" fill="#4F2683"/>
<path id="Vector_3" d="M2.92501 6.4503C2.97709 6.40337 3.00227 6.33664 3.00227 6.24624C3.00227 6.15618 2.97705 6.08945 2.92501 6.04252C2.87074 5.99397 2.7992 5.97034 2.70596 5.97034H2.44922V6.5224H2.70596C2.79916 6.52244 2.87074 6.49885 2.92501 6.4503Z" fill="#4F2683"/>
<path id="Vector_4" d="M4.93282 7.30007C4.98138 7.28186 5.02319 7.25251 5.06057 7.21036C5.10113 7.16502 5.12666 7.09988 5.13658 7.01652C5.14775 6.92165 5.15317 6.79777 5.15317 6.64833C5.15317 6.49858 5.14775 6.37466 5.13658 6.28013C5.12666 6.19651 5.10113 6.13137 5.06087 6.08634C5.02353 6.04414 4.98039 6.01419 4.93317 5.99658C4.88238 5.97711 4.82428 5.96753 4.75949 5.96753H4.45166V7.32878H4.75949C4.82394 7.32882 4.88238 7.31924 4.93282 7.30007Z" fill="#4F2683"/>
</g>
</svg>
