<svg width="30" height="22" viewBox="0 0 30 22" fill="none" xmlns="http://www.w3.org/2000/svg">
<path d="M18.2884 0.00444185C14.3308 0.00444185 10.9595 1.82112 9.06733 4.60166C8.90965 4.83263 8.64314 5.32788 8.28336 5.3301C6.55107 5.34343 6.44447 3.20917 6.38895 1.30587C6.38007 1.02604 6.14021 0.795073 5.86038 0.795073L0.845643 0.766202C0.550267 0.766202 0.305971 1.0105 0.312633 1.30587C0.423677 5.95639 1.27871 9.11448 6.91308 10.3693C7.22178 10.4381 7.4372 10.7179 7.4372 11.0333C7.4372 12.9655 7.4372 19.557 7.4372 21.4737C7.4372 21.7668 7.67484 22 7.96799 22H12.8384C13.1315 22 13.3692 21.7624 13.3692 21.4692V10.6869C13.3692 8.29053 15.0681 5.57218 18.2906 5.57218C21.5131 5.57218 23.2121 8.29053 23.2121 10.6869V21.4692C23.2121 21.7624 23.4497 22 23.7429 22H28.6133C28.9064 22 29.144 21.7624 29.144 21.4692V9.88734C29.144 4.34848 24.418 0 18.2928 0L18.2884 0.00444185Z" fill="white"/>
</svg>
