<svg width="17" height="16" viewBox="0 0 17 16" fill="none" xmlns="http://www.w3.org/2000/svg">
<path d="M5.60993 0.769421C5.36931 0.188196 4.73497 -0.121165 4.12874 0.0444527L1.37887 0.79442C0.83514 0.944413 0.457031 1.43814 0.457031 2.00062C0.457031 9.73153 6.7255 16 14.4564 16C15.0189 16 15.5126 15.6219 15.6626 15.0782L16.4126 12.3283C16.5782 11.7221 16.2688 11.0877 15.6876 10.8471L12.6877 9.59716C12.1784 9.38467 11.5878 9.53154 11.2409 9.95964L9.97849 11.5002C7.77858 10.4596 5.99741 8.67845 4.95683 6.47854L6.49739 5.21923C6.9255 4.86924 7.07236 4.28177 6.85987 3.77241L5.60993 0.772546V0.769421Z" fill="black"/>
</svg>
