<svg width="24" height="24" viewBox="0 0 24 24" fill="none" xmlns="http://www.w3.org/2000/svg">
<g id="Icons - Light" clip-path="url(#clip0_6213_16769)">
<path id="Vector" d="M20.25 4.5H3.75C3.33579 4.5 3 4.83579 3 5.25V18.75C3 19.1642 3.33579 19.5 3.75 19.5H20.25C20.6642 19.5 21 19.1642 21 18.75V5.25C21 4.83579 20.6642 4.5 20.25 4.5Z" stroke="black" stroke-width="1.5" stroke-linecap="round" stroke-linejoin="round"/>
<path id="Vector_2" d="M14.625 10.3125C15.1428 10.3125 15.5625 9.89277 15.5625 9.375C15.5625 8.85723 15.1428 8.4375 14.625 8.4375C14.1072 8.4375 13.6875 8.85723 13.6875 9.375C13.6875 9.89277 14.1072 10.3125 14.625 10.3125Z" fill="black"/>
<path id="Vector_3" d="M13.8086 15.3751L16.217 12.9695C16.3577 12.829 16.5484 12.75 16.7472 12.75C16.946 12.75 17.1367 12.829 17.2773 12.9695L20.9983 16.6932" stroke="black" stroke-width="1.5" stroke-linecap="round" stroke-linejoin="round"/>
<path id="Vector_4" d="M3 15.8148L8.09437 10.7195C8.16403 10.6497 8.24675 10.5944 8.33779 10.5567C8.42884 10.5189 8.52644 10.4995 8.625 10.4995C8.72356 10.4995 8.82116 10.5189 8.91221 10.5567C9.00325 10.5944 9.08597 10.6497 9.15563 10.7195L17.9353 19.5001" stroke="black" stroke-width="1.5" stroke-linecap="round" stroke-linejoin="round"/>
</g>
<defs>
<clipPath id="clip0_6213_16769">
<rect width="24" height="24" fill="white"/>
</clipPath>
</defs>
</svg>
