<svg width="41" height="41" viewBox="0 0 41 41" fill="none" xmlns="http://www.w3.org/2000/svg">
<g clip-path="url(#clip0_6276_9388)">
<path d="M4 28V10.5C4 9.50544 4.39509 8.55161 5.09835 7.84835C5.80161 7.14509 6.75544 6.75 7.75 6.75H10.25V24.25H7.75C6.75544 24.25 5.80161 24.6451 5.09835 25.3483C4.39509 26.0516 4 27.0054 4 28ZM4 28C4 28.9946 4.39509 29.9484 5.09835 30.6517C5.80161 31.3549 6.75544 31.75 7.75 31.75H36.5V10.5H10.25" stroke="white" stroke-width="1.875" stroke-linecap="round" stroke-linejoin="round"/>
<path d="M20.25 15.5V25.5" stroke="white" stroke-width="1.875" stroke-linecap="round" stroke-linejoin="round"/>
<path d="M26.5 15.5V25.5" stroke="white" stroke-width="1.875" stroke-linecap="round" stroke-linejoin="round"/>
<path d="M16.5 18H30.25" stroke="white" stroke-width="1.875" stroke-linecap="round" stroke-linejoin="round"/>
<path d="M16.5 23H30.25" stroke="white" stroke-width="1.875" stroke-linecap="round" stroke-linejoin="round"/>
</g>
<defs>
<clipPath id="clip0_6276_9388">
<rect width="40" height="40" fill="white" transform="translate(0.25 0.5)"/>
</clipPath>
</defs>
</svg>
