<svg width="32" height="32" viewBox="0 0 32 32" fill="none" xmlns="http://www.w3.org/2000/svg">
<g id="play02">
<path id="Vector" fill-rule="evenodd" clip-rule="evenodd" d="M15.9585 2.66699H16.0401C18.026 2.66699 19.5717 2.66698 20.8156 2.75885C22.0779 2.85207 23.1083 3.04389 24.0471 3.46922C26.0359 4.37035 27.6293 5.96378 28.5304 7.95263C28.9557 8.89137 29.1476 9.92172 29.2408 11.1841C29.3327 12.4279 29.3327 13.9737 29.3327 15.9595V16.0411C29.3327 18.027 29.3327 19.5727 29.2408 20.8166C29.1476 22.0789 28.9557 23.1093 28.5304 24.0481C27.6293 26.0369 26.0359 27.6303 24.0471 28.5314C23.1083 28.9567 22.0779 29.1486 20.8156 29.2418C19.5717 29.3337 18.026 29.3337 16.0401 29.3337H15.9585C13.9727 29.3337 12.4269 29.3337 11.1831 29.2418C9.92075 29.1486 8.89038 28.9567 7.95166 28.5314C5.9628 27.6303 4.36938 26.0369 3.46824 24.0481C3.04291 23.1093 2.8511 22.0789 2.75787 20.8166C2.666 19.5727 2.66602 18.027 2.66602 16.0411V15.9595C2.66602 13.9737 2.666 12.4279 2.75787 11.1841C2.8511 9.92172 3.04291 8.89135 3.46824 7.95263C4.36938 5.96378 5.9628 4.37035 7.95166 3.46922C8.89039 3.04389 9.92075 2.85207 11.1831 2.75885C12.4269 2.66698 13.9727 2.66699 15.9585 2.66699ZM11.3304 4.75341C10.1789 4.83846 9.41216 5.00319 8.77707 5.29094C7.23019 5.99183 5.99086 7.23117 5.28998 8.77805C5.00222 9.41314 4.83748 10.1799 4.75244 11.3314C4.66666 12.4929 4.66602 13.9651 4.66602 16.0003C4.66602 18.0355 4.66666 19.5077 4.75243 20.6693C4.83748 21.8207 5.00222 22.5875 5.28996 23.2226C5.99086 24.7695 7.23019 26.0089 8.77707 26.7097C9.41216 26.9975 10.1789 27.1622 11.3304 27.2473C12.4919 27.333 13.9641 27.3337 15.9993 27.3337C18.0345 27.3337 19.5067 27.333 20.6683 27.2473C21.8197 27.1622 22.5865 26.9975 23.2216 26.7097C24.7685 26.0089 26.0079 24.7695 26.7087 23.2226C26.9965 22.5875 27.1612 21.8207 27.2463 20.6693C27.332 19.5077 27.3327 18.0355 27.3327 16.0003C27.3327 13.9651 27.332 12.4929 27.2463 11.3314C27.1612 10.1799 26.9965 9.41314 26.7087 8.77805C26.0079 7.23117 24.7685 5.99183 23.2216 5.29095C22.5865 5.00319 21.8197 4.83846 20.6683 4.75342C19.5067 4.66763 18.0345 4.66699 15.9993 4.66699C13.9641 4.66699 12.4919 4.66763 11.3304 4.75341ZM15.3268 10.8008L19.6719 13.3094C20.1633 13.5931 20.5907 13.8399 20.9131 14.0677C21.2397 14.2985 21.5975 14.6017 21.7976 15.0513C22.0665 15.6554 22.0665 16.3453 21.7976 16.9494C21.5975 17.399 21.2397 17.7022 20.9131 17.933C20.5908 18.1607 20.1635 18.4075 19.6719 18.6913L15.3268 21.1999C14.8353 21.4837 14.408 21.7305 14.0496 21.8957C13.6864 22.0633 13.2448 22.2213 12.7554 22.1699C12.0978 22.1007 11.5003 21.7558 11.1116 21.2209C10.8224 20.8227 10.7386 20.3613 10.702 19.963C10.666 19.5699 10.666 19.0765 10.666 18.509V13.4917C10.666 12.9242 10.666 12.4307 10.702 12.0376C10.7386 11.6394 10.8224 11.1779 11.1116 10.7798C11.5003 10.2448 12.0978 9.8999 12.7554 9.83076C13.2448 9.77934 13.6864 9.93745 14.0496 10.1049C14.408 10.2702 14.8353 10.517 15.3268 10.8008ZM12.9474 11.8221C12.8659 11.8349 12.7921 11.8776 12.7402 11.9417C12.7329 11.963 12.7102 12.0396 12.6937 12.2204C12.667 12.5108 12.666 12.911 12.666 13.537V18.4637C12.666 19.0897 12.667 19.4899 12.6937 19.7803C12.7102 19.961 12.7329 20.0377 12.7402 20.059C12.7921 20.1231 12.8659 20.1658 12.9474 20.1786C12.9695 20.1742 13.0471 20.1555 13.212 20.0795C13.4768 19.9574 13.8239 19.7582 14.366 19.4451L18.6327 16.9818C19.1748 16.6689 19.5208 16.4678 19.7591 16.2995C19.9073 16.1949 19.9623 16.1369 19.9771 16.1199C20.0068 16.043 20.0067 15.9577 19.9771 15.8807C19.9623 15.8638 19.9073 15.8058 19.7591 15.7011C19.5208 15.5327 19.1748 15.3318 18.6327 15.0189L14.366 12.5555C13.8239 12.2425 13.4768 12.0432 13.212 11.9211C13.0471 11.8451 12.9695 11.8265 12.9474 11.8221Z" fill="#122A72"/>
</g>
</svg>
