<svg width="44" height="45" viewBox="0 0 44 45" fill="none" xmlns="http://www.w3.org/2000/svg">
<g id="Group 2487">
<g id="route">
<mask id="mask0_6444_320" style="mask-type:alpha" maskUnits="userSpaceOnUse" x="0" y="5" width="38" height="40">
<rect id="Bounding box" y="5" width="38" height="40" fill="#D9D9D9"/>
</mask>
<g mask="url(#mask0_6444_320)">
<path id="route_2" d="M12.3748 44.3644C10.2598 44.3644 8.45506 43.6171 6.96049 42.1225C5.46589 40.628 4.71859 38.8232 4.71859 36.7082V19.6642C3.52762 19.2218 2.54932 18.5145 1.78369 17.5421C1.01807 16.5697 0.635254 15.4745 0.635254 14.2566C0.635254 12.6951 1.18089 11.3679 2.27216 10.2749C3.36343 9.18188 4.68854 8.63538 6.24749 8.63538C7.80644 8.63538 9.13231 9.18188 10.2251 10.2749C11.3179 11.3679 11.8643 12.6951 11.8643 14.2566C11.8643 15.4745 11.4815 16.5697 10.7159 17.5421C9.95026 18.5145 8.97196 19.2218 7.78099 19.6642V36.7082C7.78099 37.9715 8.23117 39.053 9.13155 39.9526C10.0319 40.8522 11.1143 41.302 12.3786 41.302C13.643 41.302 14.724 40.8522 15.6219 39.9526C16.5197 39.053 16.9686 37.9715 16.9686 36.7082V16.2916C16.9686 14.1766 17.7159 12.3718 19.2105 10.8773C20.7051 9.38268 22.5098 8.63538 24.6248 8.63538C26.7398 8.63538 28.5445 9.38268 30.0391 10.8773C31.5337 12.3718 32.281 14.1766 32.281 16.2916V33.3356C33.472 33.778 34.4503 34.4853 35.2159 35.4577C35.9815 36.4301 36.3643 37.5253 36.3643 38.7432C36.3643 40.3047 35.8187 41.6319 34.7274 42.7249C33.6361 43.8179 32.311 44.3644 30.7521 44.3644C29.1931 44.3644 27.8673 43.8179 26.7745 42.7249C25.6817 41.6319 25.1353 40.3047 25.1353 38.7432C25.1353 37.5253 25.5181 36.4216 26.2837 35.4322C27.0493 34.4428 28.0276 33.7439 29.2186 33.3356V16.2916C29.2186 15.0283 28.7684 13.9468 27.868 13.0472C26.9677 12.1476 25.8853 11.6978 24.621 11.6978C23.3566 11.6978 22.2755 12.1476 21.3777 13.0472C20.4799 13.9468 20.031 15.0283 20.031 16.2916V36.7082C20.031 38.8232 19.2837 40.628 17.7891 42.1225C16.2945 43.6171 14.4897 44.3644 12.3748 44.3644ZM6.24979 16.802C6.95913 16.802 7.56183 16.554 8.05789 16.058C8.55391 15.562 8.80192 14.9593 8.80192 14.2499C8.80192 13.5406 8.55391 12.9379 8.05789 12.4418C7.56183 11.9458 6.95913 11.6978 6.24979 11.6978C5.54044 11.6978 4.93774 11.9458 4.44169 12.4418C3.94566 12.9379 3.69765 13.5406 3.69765 14.2499C3.69765 14.9593 3.94566 15.562 4.44169 16.058C4.93774 16.554 5.54044 16.802 6.24979 16.802ZM30.7498 41.302C31.4591 41.302 32.0618 41.054 32.5579 40.558C33.0539 40.062 33.3019 39.4593 33.3019 38.7499C33.3019 38.0406 33.0539 37.4379 32.5579 36.9418C32.0618 36.4458 31.4591 36.1978 30.7498 36.1978C30.0404 36.1978 29.4377 36.4458 28.9417 36.9418C28.4457 37.4379 28.1977 38.0406 28.1977 38.7499C28.1977 39.4593 28.4457 40.062 28.9417 40.558C29.4377 41.054 30.0404 41.302 30.7498 41.302Z" fill="black"/>
</g>
</g>
<circle id="Ellipse 872" cx="31.5" cy="12.5" r="11" fill="white" stroke="black" stroke-width="3"/>
<g id="browse_gallery">
<mask id="mask1_6444_320" style="mask-type:alpha" maskUnits="userSpaceOnUse" x="25" y="6" width="13" height="13">
<rect id="Bounding box_2" x="25" y="6" width="13" height="13" fill="#D9D9D9"/>
</mask>
<g mask="url(#mask1_6444_320)">
<path id="browse_gallery_2" d="M33.5222 15.5333L34.5333 14.5222L32.2222 12.2111V8.88889H30.7778V12.7889L33.5222 15.5333ZM31.5 19C30.5972 19 29.7516 18.8285 28.9632 18.4854C28.1748 18.1424 27.4887 17.6789 26.9049 17.0951C26.3211 16.5113 25.8576 15.8252 25.5146 15.0368C25.1715 14.2484 25 13.4028 25 12.5C25 11.5972 25.1715 10.7516 25.5146 9.96319C25.8576 9.17477 26.3211 8.48866 26.9049 7.90486C27.4887 7.32106 28.1748 6.85764 28.9632 6.51458C29.7516 6.17153 30.5972 6 31.5 6C32.4028 6 33.2484 6.17153 34.0368 6.51458C34.8252 6.85764 35.5113 7.32106 36.0951 7.90486C36.6789 8.48866 37.1424 9.17477 37.4854 9.96319C37.8285 10.7516 38 11.5972 38 12.5C38 13.4028 37.8285 14.2484 37.4854 15.0368C37.1424 15.8252 36.6789 16.5113 36.0951 17.0951C35.5113 17.6789 34.8252 18.1424 34.0368 18.4854C33.2484 18.8285 32.4028 19 31.5 19Z" fill="black"/>
</g>
</g>
</g>
</svg>
