<svg width="44" height="44" viewBox="0 0 44 44" fill="none" xmlns="http://www.w3.org/2000/svg">
<path id="Vector" d="M43.8334 22.0333C43.8334 26.2856 42.5724 30.4424 40.21 33.9781C37.8475 37.5137 34.4897 40.2694 30.5611 41.8967C26.6325 43.524 22.3095 43.9498 18.1389 43.1202C13.9683 42.2906 10.1374 40.2429 7.13059 37.2361C4.12376 34.2293 2.07608 30.3984 1.2465 26.2278C0.416918 22.0572 0.84269 17.7342 2.46997 13.8056C4.09726 9.87702 6.85297 6.51918 10.3886 4.15673C13.9243 1.79428 18.0811 0.533325 22.3334 0.533325C25.1569 0.532969 27.9528 1.08884 30.5615 2.16919C33.1702 3.24954 35.5404 4.8332 37.537 6.82973C39.5335 8.82626 41.1172 11.1965 42.1975 13.8052C43.2779 16.4139 43.8337 19.2098 43.8334 22.0333ZM32.6855 9.81822C32.441 9.6766 32.1709 9.58463 31.8907 9.54756C31.6106 9.5105 31.3259 9.52909 31.0529 9.60224C30.78 9.6754 30.5241 9.8017 30.3001 9.9739C30.076 10.1461 29.8881 10.3608 29.7472 10.6058L19.3516 28.6107L14.6453 22.9621C14.4645 22.7453 14.2427 22.5662 13.9927 22.435C13.7427 22.3039 13.4693 22.2233 13.1881 22.1978C12.9069 22.1724 12.6235 22.2025 12.354 22.2866C12.0845 22.3707 11.8342 22.507 11.6173 22.6878C11.4005 22.8686 11.2214 23.0904 11.0903 23.3404C10.9591 23.5904 10.8785 23.8638 10.8531 24.145C10.8016 24.7128 10.9779 25.2779 11.343 25.7158L18.0209 33.7324C18.2226 33.9745 18.4751 34.1693 18.7604 34.3031C19.0457 34.4368 19.3569 34.5062 19.672 34.5064C19.7337 34.5062 19.7953 34.5035 19.8567 34.4983C20.2017 34.4688 20.5346 34.3564 20.8268 34.1706C21.119 33.9847 21.362 33.731 21.535 33.431L33.4676 12.7539C33.6088 12.5094 33.7005 12.2396 33.7373 11.9597C33.7741 11.6798 33.7555 11.3955 33.6823 11.1228C33.6092 10.8502 33.483 10.5946 33.311 10.3708C33.1391 10.1469 32.9247 9.95916 32.6801 9.81822H32.6855Z" fill="#4F2683"/>
</svg>
