<svg width="21" height="21" viewBox="0 0 21 21" fill="none" xmlns="http://www.w3.org/2000/svg">
<path id="Primary" d="M10.5 0C13.2848 0 15.9555 1.10625 17.9246 3.07538C19.8938 5.04451 21 7.71523 21 10.5C21 13.2848 19.8938 15.9555 17.9246 17.9246C15.9555 19.8938 13.2848 21 10.5 21C7.71523 21 5.04451 19.8938 3.07538 17.9246C1.10625 15.9555 0 13.2848 0 10.5C0 7.71523 1.10625 5.04451 3.07538 3.07538C5.04451 1.10625 7.71523 0 10.5 0ZM9.51562 4.92188V10.5C9.51562 10.8281 9.67969 11.1357 9.95449 11.3203L13.892 13.9453C14.3432 14.2488 14.9543 14.1258 15.2578 13.6705C15.5613 13.2152 15.4383 12.6082 14.983 12.3047L11.4844 9.975V4.92188C11.4844 4.37637 11.0455 3.9375 10.5 3.9375C9.95449 3.9375 9.51562 4.37637 9.51562 4.92188Z" fill="#122A72"/>
</svg>
