<svg version="1.2" xmlns="http://www.w3.org/2000/svg" viewBox="0 0 19 23" width="19" height="23">
	<title>word-svg</title>
	<style>
		.s0 { fill: #4f2683 } 
	</style>
	<g id="Group 2560">
		<path id="Vector" class="s0" d="m12.2 10.5h0.9l-1 4.8-1.4-6.8h-2.3l-1.6 6.8-1.3-6.8h-2.3l2.4 10.9h2.3l1.6-6.4 1.4 6.4h2.2l2.7-10.9h-3.6z"/>
		<path id="Vector_2" fill-rule="evenodd" class="s0" d="m19 7.2v13.2c0 0.9-0.8 1.7-1.7 1.7h-15.6c-0.9 0-1.7-0.8-1.7-1.7v-18.3c0-1 0.8-1.7 1.7-1.7h10.5c0.3 0 0.8 0.1 1.9 0.9 0.7 0.4 1.4 1.1 2.2 1.8 0.7 0.7 1.3 1.5 1.8 2.1 0.8 1.1 0.9 1.7 0.9 2zm-1.4 0h-4.7c-0.4 0-0.7-0.3-0.7-0.7v-4.8h-10.5c-0.2 0-0.3 0.2-0.3 0.4v18.3c0 0.2 0.1 0.3 0.3 0.3h15.6c0.2 0 0.3-0.1 0.3-0.3zm-4-4.6v3.2h3.2q-0.5-0.7-1.5-1.7-1-1-1.7-1.5z"/>
	</g>
</svg>