<svg width="23" height="16" viewBox="0 0 23 16" fill="none" xmlns="http://www.w3.org/2000/svg">
<path id="Path 418" d="M21.9398 2.46275C21.8121 1.98652 21.5614 1.55194 21.2129 1.20226C20.8644 0.852571 20.4302 0.599957 19.9534 0.469543C18.2092 0 11.2062 0 11.2062 0C11.2062 0 4.20218 0 2.44541 0.469543C1.96778 0.598319 1.53265 0.850387 1.18389 1.20033C0.835133 1.55027 0.585079 1.98571 0.458944 2.46275C0.142684 4.24812 -0.0107206 6.0584 0.000608959 7.87137C-0.0111174 9.68526 0.146536 11.4963 0.471529 13.281C0.599312 13.7573 0.849921 14.1918 1.19843 14.5415C1.54693 14.8912 1.98119 15.1438 2.458 15.2742C4.20218 15.7438 11.2062 15.7438 11.2062 15.7438C11.2062 15.7438 18.2092 15.7438 19.967 15.2742C20.4444 15.1453 20.8794 14.8932 21.2279 14.5432C21.5765 14.1933 21.8264 13.758 21.9524 13.281C22.2687 11.4957 22.4221 9.6854 22.4108 7.87242C22.4225 6.05853 22.2648 4.24749 21.9398 2.46275ZM8.91558 11.1979V4.54484L14.7732 7.87137L8.91558 11.1979Z" fill="white"/>
</svg>
